<?xml version="1.0" standalone="no"?>
<!DOCTYPE svg PUBLIC "-//W3C//DTD SVG 20010904//EN"
 "http://www.w3.org/TR/2001/REC-SVG-20010904/DTD/svg10.dtd">
<svg version="1.0" xmlns="http://www.w3.org/2000/svg"
 width="1200.000000pt" height="1200.000000pt" viewBox="0 0 1200.000000 1200.000000"
 preserveAspectRatio="xMidYMid meet">
<metadata>
Created by potrace 1.14, written by Peter Selinger 2001-2017
</metadata>
<g transform="translate(0.000000,1200.000000) scale(0.100000,-0.100000)"
fill="#000000" stroke="none">
<path d="M6159 10824 c54 -62 64 -99 62 -234 l-1 -75 -20 30 c-11 17 -19 38
-16 48 2 9 0 14 -6 11 -12 -8 -39 27 -33 44 3 8 0 10 -8 5 -6 -4 -20 -6 -29
-5 -29 5 -53 -58 -43 -115 8 -47 20 -41 22 11 1 47 17 86 34 86 6 0 8 -9 4
-19 -10 -31 -16 -64 -20 -99 -8 -81 -17 -112 -31 -112 -13 0 -13 -3 0 -21 8
-12 12 -28 9 -36 -4 -10 -18 5 -44 45 -33 53 -36 64 -29 96 4 20 4 36 0 36 -4
0 -10 -14 -14 -31 l-6 -30 -33 25 c-47 36 -96 45 -114 21 -7 -11 -13 -28 -12
-39 0 -16 4 -13 15 12 12 28 18 32 37 26 39 -12 124 -94 98 -94 -5 0 -13 5
-16 10 -3 6 -10 10 -16 10 -16 0 -10 -36 10 -61 11 -15 22 -50 26 -84 4 -40 3
-55 -3 -46 -6 8 -8 21 -5 30 4 14 4 14 -6 1 -6 -8 -8 -23 -5 -32 3 -10 1 -18
-5 -18 -5 0 -13 16 -17 35 -3 19 -10 35 -16 35 -5 0 -7 -3 -5 -7 3 -5 8 -25
11 -45 7 -42 -7 -50 -61 -34 -51 15 -77 77 -71 168 7 92 -11 63 -27 -44 -2
-17 7 -49 25 -85 16 -31 28 -58 27 -59 -1 -1 -14 -5 -30 -9 -27 -7 -27 -6 -27
39 0 34 -4 46 -15 46 -10 0 -15 10 -15 28 0 31 -27 75 -40 67 -5 -3 -14 -24
-20 -46 -7 -25 -15 -37 -22 -33 -8 5 -9 -6 -5 -34 3 -27 1 -42 -6 -42 -5 0 -3
-8 6 -18 10 -10 17 -21 17 -24 0 -7 -41 -21 -54 -19 -9 2 11 -28 26 -39 9 -7
18 -70 10 -69 -4 1 -9 1 -12 0 -23 -9 -70 -9 -70 0 0 6 -6 9 -12 6 -7 -2 -33
6 -58 20 -37 19 -46 21 -48 8 -3 -11 -18 -15 -62 -15 -32 0 -61 -4 -64 -9 -4
-5 -24 -12 -47 -16 -22 -4 -52 -17 -66 -29 l-26 -22 44 -34 c24 -19 50 -40 57
-47 7 -7 20 -13 28 -13 8 0 14 -5 14 -11 0 -7 -10 -9 -24 -7 -29 6 -69 -33
-71 -68 -1 -37 -10 -37 -55 1 -33 28 -50 35 -79 34 -20 -1 -49 1 -66 4 -44 9
-109 12 -120 6 -6 -3 -37 -5 -70 -4 -33 2 -68 -2 -78 -7 -17 -9 -14 -15 28
-61 126 -141 150 -159 225 -170 14 -2 25 -10 25 -18 0 -17 74 -59 92 -52 7 3
13 0 13 -5 0 -29 -126 -24 -150 6 -25 30 -57 43 -100 40 -29 -1 -40 -6 -38
-16 4 -21 67 -52 105 -52 56 0 45 -17 -16 -24 -65 -7 -104 5 -133 40 -10 12
-31 27 -48 32 -26 9 -31 8 -40 -8 -13 -24 12 -49 68 -67 l37 -11 -47 -1 c-40
-1 -50 3 -70 28 -26 32 -86 57 -101 42 -12 -12 7 -32 51 -55 18 -9 32 -19 32
-21 0 -3 -20 -5 -45 -5 -39 0 -45 3 -51 24 -7 28 -30 51 -60 60 -33 10 -39
-29 -8 -53 32 -25 20 -33 -23 -15 -41 18 -73 10 -73 -16 0 -25 44 -37 82 -22
33 12 36 3 8 -23 -11 -10 -20 -24 -20 -32 0 -22 28 -14 66 19 21 19 49 33 66
34 40 2 35 -9 -16 -34 -50 -25 -63 -39 -63 -64 1 -34 51 -11 87 38 28 39 68
64 101 64 21 0 19 -3 -12 -25 -33 -25 -62 -72 -52 -87 16 -28 93 35 93 76 0
22 30 35 89 40 50 4 69 -7 32 -19 -10 -3 -35 -21 -56 -40 -20 -19 -43 -35 -51
-35 -21 0 -17 -26 11 -70 19 -31 33 -40 62 -45 21 -4 41 -7 45 -8 4 -1 -17
-21 -46 -44 l-54 -41 -11 26 c-7 15 -25 37 -42 48 -27 20 -35 20 -76 10 -26
-7 -48 -17 -51 -24 -6 -18 53 -72 80 -73 13 -1 36 -1 52 -1 l29 -1 -34 -29
c-19 -16 -51 -44 -71 -63 -39 -35 -50 -34 -75 9 -12 20 -135 58 -144 45 -13
-22 22 -86 57 -103 39 -18 80 -21 89 -6 8 13 25 13 25 0 0 -13 -78 -52 -90
-45 -13 8 -70 17 -95 15 -11 -1 -28 -2 -38 -3 -29 -2 -19 -61 13 -80 21 -13
34 -14 71 -5 24 6 46 14 49 17 3 3 15 6 28 7 l22 1 -21 -23 c-18 -19 -21 -32
-17 -74 3 -29 13 -59 22 -68 15 -15 18 -15 41 8 14 15 27 43 31 67 6 37 3 45
-20 66 -28 26 -27 33 9 96 l14 25 7 -30 c3 -16 16 -45 28 -64 11 -19 20 -36
18 -37 -1 -2 -2 -6 -2 -10 0 -17 41 34 49 61 9 35 -23 116 -46 116 -7 0 9 19
35 43 26 23 50 47 54 52 11 15 10 0 -4 -32 -13 -32 -12 -66 4 -105 11 -29 24
-36 30 -17 2 7 19 -2 38 -20 31 -28 49 -35 115 -45 30 -5 73 21 90 54 15 30
16 47 2 42 -4 -1 -6 4 -5 10 4 18 -26 11 -89 -18 -57 -27 -75 -29 -104 -14
-17 10 -17 13 -5 33 7 12 13 32 12 44 -2 19 2 22 27 19 39 -5 87 12 87 30 0
24 17 16 24 -11 6 -22 11 -25 55 -25 49 0 56 -7 38 -37 -16 -25 -16 -57 -1
-83 15 -24 15 -29 1 -56 -9 -16 -16 -23 -17 -16 0 7 4 22 10 32 7 13 6 19 -6
24 -18 7 -107 -82 -130 -130 -17 -36 -54 -78 -61 -70 -3 3 9 30 26 61 17 30
27 55 22 55 -13 0 -53 -54 -80 -107 -12 -24 -25 -43 -29 -44 -4 0 -15 -2 -24
-4 -25 -5 -22 10 11 58 44 63 82 96 132 111 29 9 36 14 21 15 -13 1 -20 6 -17
11 9 14 -1 12 -38 -6 -17 -9 -44 -18 -60 -19 -37 -3 -48 -15 -13 -15 l28 0
-41 -46 c-22 -25 -45 -61 -52 -81 -11 -33 -13 -35 -48 -28 -20 4 -43 12 -51
19 -33 28 -43 27 -17 -1 30 -33 97 -57 135 -49 27 6 27 7 -2 -84 -31 -98 -41
-144 -28 -136 5 3 13 18 16 33 14 60 70 189 89 206 27 24 35 12 10 -16 -25
-27 -46 -67 -40 -74 3 -2 13 11 22 30 9 19 25 43 36 53 10 9 19 22 19 29 0 7
9 20 20 30 18 17 20 17 14 2 -3 -9 -10 -17 -15 -17 -5 0 -8 -4 -7 -8 6 -17
-64 -132 -80 -132 -14 0 -14 -2 -3 -9 11 -7 12 -17 4 -50 -6 -23 -9 -41 -7
-41 2 0 13 22 25 49 12 28 29 51 40 54 24 7 24 -10 -1 -48 -11 -16 -20 -25
-20 -19 0 5 6 16 13 23 10 11 9 13 -3 9 -8 -3 -19 -18 -24 -34 -15 -51 -21
-58 -76 -88 -76 -41 -139 -37 -164 12 -7 15 -11 32 -9 39 2 6 -1 14 -6 18 -6
3 -12 -1 -12 -9 -1 -9 -2 -22 -3 -28 -1 -7 2 -19 7 -25 6 -9 5 -18 -3 -28 -7
-8 -16 -36 -21 -61 -5 -25 -16 -55 -25 -67 -15 -21 -16 -19 -9 34 4 39 1 69
-10 101 -8 25 -16 58 -17 72 -1 14 -6 26 -11 26 -5 0 -7 -9 -4 -20 9 -35 -3
-22 -23 25 -11 25 -22 45 -25 45 -11 0 7 -63 40 -139 31 -70 34 -86 29 -133
-7 -62 -7 -62 -31 -54 -24 8 -50 60 -57 111 -3 22 -5 41 -6 43 0 1 -5 2 -11 2
-10 0 -7 -31 7 -82 8 -28 -21 -22 -36 7 -7 14 -18 25 -24 25 -11 0 -15 41 -19
170 -1 45 -6 65 -15 64 -28 -2 -32 -5 -32 -17 0 -8 -8 -22 -19 -31 -37 -34
-52 -126 -33 -212 11 -54 11 -114 0 -114 -5 0 -8 1 -8 3 0 1 -9 27 -20 57 -35
95 -36 146 -5 214 15 32 40 70 55 83 16 13 38 43 50 68 12 24 27 46 33 49 7 2
6 5 -4 5 -8 1 -22 -5 -30 -11 -22 -19 -77 -91 -89 -119 -18 -40 -60 -105 -61
-94 0 6 -2 18 -4 27 -5 29 113 198 139 198 6 0 22 10 36 23 28 24 64 77 54 77
-4 0 1 9 11 20 10 11 16 23 12 26 -11 12 -144 -131 -205 -221 -28 -42 -32 -45
-26 -20 10 43 33 85 65 122 36 42 83 122 76 130 -13 13 -60 -31 -80 -75 -12
-26 -20 -51 -19 -56 2 -5 -1 -12 -6 -15 -5 -3 -16 -19 -25 -36 l-16 -30 -1 55
c-2 91 -18 138 -61 181 -52 52 -47 -8 10 -105 37 -65 38 -68 34 -148 -2 -46
-7 -86 -11 -90 -4 -4 -8 0 -9 10 -1 9 -4 31 -8 47 -3 17 -7 48 -9 70 -4 43
-33 108 -45 101 -13 -8 -4 -92 14 -126 10 -19 21 -48 26 -64 l8 -31 -19 26
c-11 14 -38 39 -60 54 -27 19 -50 47 -66 82 -26 54 -55 70 -68 37 -4 -11 12
-32 50 -67 141 -129 181 -175 192 -219 6 -24 20 -81 32 -128 38 -152 37 -139
7 -106 -15 16 -27 32 -27 37 0 4 -7 15 -16 24 -9 9 -18 33 -21 53 -10 79 -79
172 -127 172 -10 0 -26 4 -36 10 -23 12 -30 -3 -23 -56 10 -85 22 -110 70
-151 27 -22 62 -48 78 -58 17 -10 35 -23 40 -29 6 -6 31 -21 58 -33 26 -13 47
-27 47 -33 0 -5 6 -10 14 -10 7 0 21 -12 31 -26 9 -14 32 -43 51 -64 l34 -38
-42 3 c-24 1 -60 9 -80 18 -21 10 -40 17 -44 17 -4 0 -23 12 -43 27 -31 24
-45 27 -123 30 -55 1 -86 -1 -83 -7 4 -6 2 -10 -4 -10 -6 0 -8 -8 -4 -17 19
-56 117 -113 194 -113 25 0 49 3 53 7 4 4 24 8 44 9 35 1 77 7 132 19 21 4 36
-7 103 -80 43 -47 75 -85 70 -85 -31 0 -82 24 -106 50 -16 16 -34 31 -40 31
-7 1 -23 2 -37 3 -14 1 -34 7 -46 13 -26 15 -136 24 -154 13 -22 -13 107 -134
164 -153 50 -17 58 -17 129 8 35 12 56 14 75 7 15 -5 35 -8 44 -6 12 1 40 -25
80 -74 35 -42 87 -99 116 -127 29 -27 52 -53 52 -56 0 -4 -17 -3 -37 1 -26 5
-55 24 -92 59 -29 28 -64 54 -77 57 -13 3 -24 12 -24 20 0 8 -7 14 -16 14 -8
0 -12 -4 -9 -10 8 -13 3 -13 -32 1 -15 6 -44 12 -63 14 -36 4 -123 14 -137 16
-24 4 -43 -3 -43 -15 0 -8 7 -12 18 -10 18 5 80 -42 69 -52 -3 -4 10 -22 31
-40 20 -18 31 -34 25 -34 -7 0 -13 3 -13 8 0 14 -115 98 -166 121 -43 19 -57
33 -89 87 -44 76 -58 79 -19 5 14 -29 25 -53 23 -55 -2 -2 -31 2 -64 8 -103
21 -178 -4 -218 -72 -16 -27 -17 -35 -5 -58 7 -15 20 -30 28 -32 12 -4 13 -2
3 9 -10 13 -17 41 -14 65 2 19 35 51 61 59 34 11 109 14 145 4 16 -4 42 -10
57 -13 15 -3 36 -20 48 -36 19 -27 20 -31 5 -36 -10 -4 -31 6 -56 26 -47 38
-58 36 -24 -4 14 -16 22 -32 19 -37 -10 -17 19 -51 59 -70 23 -10 39 -19 35
-20 -27 -5 -37 -2 -73 25 -22 17 -69 60 -104 96 -49 50 -60 57 -45 32 10 -19
47 -62 80 -96 l61 -62 -42 -23 c-30 -16 -51 -37 -69 -72 -15 -27 -22 -49 -17
-49 6 0 11 4 11 10 0 13 60 80 72 80 5 0 26 -13 46 -30 20 -16 55 -38 77 -49
32 -16 37 -21 23 -26 -10 -4 -18 -11 -18 -16 0 -5 13 -3 29 6 29 15 111 17
111 3 0 -5 -4 -8 -8 -8 -24 0 -64 -54 -66 -90 -1 -8 -7 -16 -13 -16 -7 -1 -17
-2 -23 -3 -13 -1 -13 -47 1 -74 6 -12 23 -35 38 -51 22 -25 23 -28 6 -21 -11
4 -36 11 -55 17 -19 5 -40 11 -46 13 -7 2 -9 19 -4 48 7 49 -1 72 -34 99 -42
35 -54 24 -50 -42 2 -34 6 -65 9 -71 4 -5 -9 -2 -28 7 -41 19 -64 51 -48 67
29 29 -5 99 -58 121 -40 15 -51 9 -51 -33 0 -34 40 -101 61 -101 10 0 21 -5
25 -12 5 -8 2 -9 -9 -5 -17 6 -24 -7 -9 -16 4 -2 0 -2 -8 0 -22 7 -22 7 -67
-2 -61 -11 -84 -42 -68 -92 6 -18 12 -21 39 -16 17 3 48 19 69 35 47 37 85 48
115 35 31 -14 28 -24 -7 -19 -40 6 -98 -56 -93 -99 4 -27 12 -62 16 -66 15
-16 120 102 111 125 -8 22 14 43 34 33 9 -4 49 -16 89 -26 67 -16 71 -18 50
-29 -54 -28 -75 -48 -85 -80 -17 -55 -2 -63 77 -41 36 11 54 43 55 100 0 20 7
22 65 11 14 -2 35 -5 48 -5 23 -1 32 -21 10 -21 -29 -1 -58 -36 -66 -81 -9
-47 1 -85 18 -74 5 3 35 -1 66 -9 32 -8 61 -13 66 -10 4 3 13 2 19 -2 14 -8
-65 -44 -97 -44 -13 0 -43 13 -66 30 -45 33 -69 37 -87 17 -8 -11 -7 -18 7
-29 28 -25 59 -38 89 -38 24 -1 26 -2 10 -11 -29 -17 -72 -13 -121 10 -49 22
-91 27 -101 11 -10 -17 34 -45 73 -46 78 -3 79 -4 42 -24 -23 -12 -39 -15 -46
-9 -11 9 -42 18 -74 22 -8 1 -16 -6 -18 -16 -3 -12 5 -19 27 -23 36 -7 51 -23
24 -25 -10 -1 -22 -1 -27 0 -17 3 -56 -30 -56 -48 0 -40 44 -31 86 18 25 27
33 15 12 -19 -10 -16 -10 -22 3 -35 24 -24 50 2 56 58 5 40 10 49 36 62 45 22
49 19 22 -21 -24 -36 -33 -74 -17 -74 18 0 63 59 73 94 8 28 18 40 46 51 20 8
39 13 42 10 3 -3 -4 -8 -15 -11 -27 -7 -57 -59 -49 -84 14 -44 43 -18 93 80
21 41 28 47 90 67 l67 22 -30 -22 c-42 -31 -95 -89 -95 -104 0 -8 11 -11 32
-9 36 4 88 55 88 86 0 12 17 29 47 47 38 22 83 37 83 28 0 -1 -16 -19 -36 -40
-23 -25 -34 -45 -31 -57 4 -13 -4 -25 -28 -41 -45 -29 -68 -73 -98 -182 -14
-50 -28 -97 -31 -106 -11 -26 19 -30 68 -8 25 11 48 24 51 29 3 6 15 10 25 10
17 0 104 47 135 73 6 4 25 16 44 26 24 12 39 30 51 61 19 50 35 61 45 31 9
-29 68 -56 93 -42 25 13 37 2 14 -15 -9 -7 -17 -16 -17 -21 -1 -4 -9 -23 -19
-41 -27 -52 -28 -72 -3 -81 12 -5 25 -7 28 -5 11 6 65 16 87 15 13 0 41 8 64
20 24 12 50 18 63 15 19 -5 28 1 44 27 34 54 101 104 101 75 0 -7 5 -6 15 2
22 18 28 7 28 -49 0 -47 1 -49 25 -45 14 3 29 7 34 10 4 3 4 -5 0 -17 -10 -26
21 -99 41 -99 7 0 25 -14 40 -31 15 -18 30 -29 33 -26 11 10 12 62 2 81 -6 10
-6 21 -2 25 17 12 14 32 -6 61 -22 31 -15 43 24 45 19 0 21 -5 19 -59 -1 -46
4 -70 24 -107 13 -26 30 -50 36 -52 7 -3 -3 -10 -20 -17 -31 -11 -45 -30 -22
-30 5 0 8 -4 5 -9 -4 -5 -1 -11 6 -13 7 -3 13 -19 14 -36 1 -17 -2 -29 -7 -27
-4 3 -10 -1 -12 -7 -4 -10 -6 -10 -6 0 -1 10 -6 10 -22 2 -14 -8 -24 -8 -33
-1 -7 6 -15 8 -19 5 -3 -3 -26 6 -51 21 -40 23 -47 25 -52 11 -5 -12 -20 -16
-64 -16 -33 0 -61 -4 -64 -9 -3 -5 -23 -12 -43 -16 -42 -7 -83 -30 -83 -45 0
-6 12 -20 27 -33 14 -12 37 -32 51 -44 14 -13 34 -23 44 -23 11 0 16 -4 12
-11 -3 -6 -15 -8 -26 -6 -26 7 -68 -40 -68 -75 0 -16 -3 -28 -6 -28 -4 0 -26
16 -50 36 -35 28 -50 34 -76 31 -18 -2 -41 0 -50 4 -9 5 -43 9 -75 9 -157 -1
-180 -2 -200 -7 -13 -3 -23 -11 -23 -17 0 -7 42 -55 93 -108 76 -79 100 -98
133 -104 21 -4 45 -7 53 -5 8 1 12 -3 8 -12 -6 -15 58 -57 87 -57 9 0 16 -4
16 -10 0 -13 -40 -22 -76 -16 -16 2 -34 5 -41 5 -7 1 -22 12 -35 25 -29 30
-85 46 -115 32 -13 -6 -23 -14 -23 -18 0 -13 78 -48 107 -48 15 0 35 -5 43
-10 12 -8 10 -10 -10 -11 -14 0 -41 -2 -60 -5 -49 -6 -76 2 -108 34 -48 49
-102 61 -102 22 0 -19 37 -48 79 -60 23 -7 21 -8 -15 -9 -32 -1 -46 5 -69 29
-30 32 -93 56 -108 41 -10 -10 48 -61 69 -61 8 0 14 -4 14 -10 0 -5 -18 -10
-40 -10 -34 0 -42 4 -55 30 -18 34 -59 65 -75 55 -17 -10 -11 -44 10 -55 37
-20 20 -28 -25 -11 -41 15 -46 14 -61 -1 -35 -35 20 -61 80 -38 32 12 33 7 1
-24 -28 -28 -25 -62 3 -47 23 13 62 50 62 59 0 4 18 8 39 8 49 0 44 -10 -17
-39 -37 -17 -48 -28 -50 -50 -2 -18 1 -27 11 -27 16 0 87 61 87 76 0 15 55 44
86 44 l27 0 -34 -23 c-43 -29 -68 -72 -52 -88 19 -19 49 0 72 46 12 25 31 50
42 56 20 10 119 22 119 14 0 -3 -12 -11 -27 -19 -16 -8 -42 -29 -60 -45 -18
-17 -36 -31 -41 -31 -5 0 -12 -9 -15 -19 -3 -14 7 -33 33 -60 30 -34 43 -41
74 -41 l38 0 -53 -40 c-30 -22 -57 -40 -61 -40 -5 0 -12 10 -17 23 -19 50 -48
62 -121 54 -46 -6 -52 -37 -14 -72 25 -23 61 -31 114 -26 8 1 -14 -25 -50 -58
-71 -66 -91 -73 -107 -38 -7 15 -31 30 -77 46 -37 13 -69 21 -73 18 -14 -14
23 -91 52 -108 34 -20 81 -24 90 -9 8 13 25 13 25 0 0 -19 -64 -51 -90 -44
-14 3 -36 8 -49 10 -13 3 -26 6 -30 6 -3 1 -20 -2 -38 -6 -22 -5 -30 -12 -28
-24 2 -9 4 -23 4 -29 1 -7 12 -20 25 -28 20 -14 31 -14 68 -5 24 7 52 19 62
28 13 12 17 12 11 3 -6 -11 -4 -13 8 -8 21 8 22 -2 2 -17 -22 -16 -27 -81 -10
-121 15 -38 22 -41 46 -22 42 32 54 117 19 139 -27 17 -25 54 5 90 23 27 25
28 25 8 0 -11 12 -44 26 -72 l26 -52 24 40 c13 21 24 43 24 48 0 20 -42 96
-53 96 -7 0 10 21 36 46 50 47 68 53 47 13 -24 -44 6 -143 36 -118 10 8 19 5
36 -15 13 -15 40 -33 61 -40 l39 -13 -31 -20 c-18 -11 -46 -19 -66 -18 -19 1
-32 -2 -29 -6 3 -5 14 -9 26 -9 18 0 17 -4 -12 -36 -18 -21 -41 -57 -51 -81
-18 -43 -20 -44 -51 -38 -18 4 -45 15 -60 26 -16 11 -28 15 -28 9 0 -5 19 -22
42 -37 32 -21 53 -28 89 -27 l47 1 -14 -41 c-30 -82 -52 -176 -44 -181 4 -3
11 7 14 23 15 64 81 214 98 223 22 12 24 2 3 -21 -8 -8 -21 -32 -29 -52 -13
-31 -13 -37 -1 -41 11 -5 12 -13 4 -42 -15 -52 -3 -56 17 -6 16 40 45 67 57
54 7 -7 -18 -59 -34 -69 -7 -4 -7 1 1 16 6 12 10 24 7 26 -4 5 -22 -28 -36
-68 -22 -59 -160 -109 -205 -76 -16 13 -17 18 -6 39 13 24 13 24 -9 5 -21 -19
-21 -19 -21 13 0 21 -4 30 -11 25 -7 -4 -9 -22 -6 -44 3 -21 -1 -47 -9 -61 -7
-13 -13 -37 -14 -52 0 -16 -9 -40 -20 -54 l-20 -26 6 62 c5 45 3 72 -10 105
-9 24 -16 48 -15 52 3 19 -1 34 -10 34 -5 0 -7 -10 -3 -22 3 -14 2 -19 -6 -14
-7 4 -12 13 -12 20 0 17 -24 66 -32 66 -15 0 9 -72 59 -178 12 -24 14 -48 9
-89 -4 -32 -8 -59 -10 -61 -8 -7 -46 19 -57 40 -6 11 -13 38 -15 60 -4 45 -11
61 -24 53 -5 -3 -3 -26 5 -50 15 -53 3 -60 -32 -17 -29 35 -43 17 -32 -41 4
-23 5 -45 2 -50 -2 -4 0 -13 5 -20 5 -7 13 -37 16 -67 9 -70 47 -156 75 -165
12 -3 21 -11 21 -17 0 -5 9 -23 21 -39 11 -16 16 -29 10 -29 -6 0 -15 8 -20
18 -6 9 -31 37 -57 62 -129 125 -138 138 -149 215 -4 22 27 95 57 137 20 29
27 96 12 119 -11 18 -13 92 -2 105 5 7 2 16 -7 24 -14 11 -20 8 -45 -21 -16
-19 -37 -57 -46 -86 -15 -46 -16 -62 -5 -135 7 -46 11 -94 9 -108 -4 -23 -7
-20 -26 22 -11 26 -26 74 -32 106 -9 52 -8 64 11 108 12 27 22 51 22 54 0 3
21 29 48 58 27 30 49 62 49 72 0 11 8 24 18 29 16 10 16 10 0 11 -23 0 -85
-76 -129 -160 -36 -68 -49 -77 -49 -35 0 43 103 181 150 201 28 12 70 63 74
91 2 9 11 22 21 29 17 12 17 14 2 14 -27 0 -150 -132 -204 -219 -13 -20 -23
-29 -23 -21 1 23 34 92 59 120 22 25 91 128 91 136 0 2 -6 4 -13 4 -22 0 -62
-45 -81 -91 -10 -24 -22 -51 -27 -59 -5 -8 -12 -23 -15 -32 -12 -35 -20 -17
-22 44 -1 38 -9 77 -22 103 -23 48 -54 80 -69 71 -13 -9 3 -54 46 -124 34 -56
34 -58 29 -147 -2 -49 -5 -92 -6 -95 -4 -12 -30 99 -30 129 0 53 -47 144 -51
99 -3 -40 5 -85 24 -126 33 -74 30 -82 -16 -37 -23 23 -49 46 -58 51 -9 5 -27
32 -40 59 -17 35 -31 51 -46 53 -51 7 -13 -65 59 -114 24 -16 53 -40 66 -54
90 -98 81 -80 125 -255 13 -55 28 -109 33 -120 7 -18 6 -19 -9 -6 -42 34 -89
126 -96 189 0 1 -7 15 -15 30 -22 42 -59 72 -108 86 -42 13 -44 13 -55 -10 -6
-13 -8 -22 -3 -19 4 2 11 -19 14 -48 7 -49 39 -117 55 -117 4 0 23 -14 42 -31
19 -17 46 -36 62 -41 15 -6 27 -16 27 -24 0 -8 3 -13 8 -12 11 3 87 -39 101
-56 7 -9 17 -14 21 -11 5 3 11 -3 14 -13 3 -9 24 -35 46 -57 21 -22 39 -43 40
-46 0 -4 -19 -5 -42 -4 -41 2 -109 30 -188 75 -47 27 -176 27 -185 0 -8 -26 3
-46 40 -74 54 -41 109 -59 162 -52 27 4 63 6 81 6 19 0 39 3 45 7 7 4 21 8 32
9 11 1 34 4 51 8 28 5 37 -1 108 -75 42 -45 75 -83 72 -86 -9 -10 -81 20 -101
42 -26 29 -57 45 -81 41 -10 -2 -32 3 -48 12 -30 15 -153 25 -161 12 -7 -11
105 -119 144 -140 55 -28 90 -30 149 -8 36 14 62 17 80 12 15 -4 37 -8 50 -8
16 0 41 -23 88 -83 37 -46 86 -101 110 -122 24 -21 44 -41 44 -44 0 -3 -16 -5
-35 -5 -26 0 -41 7 -62 32 -15 18 -48 46 -73 61 -25 16 -51 36 -58 44 -9 11
-15 12 -24 3 -7 -7 -17 -8 -27 -2 -15 8 -61 15 -156 26 -22 2 -45 6 -52 8 -6
3 -19 -2 -30 -9 -17 -14 -17 -14 1 -15 22 0 90 -49 81 -58 -3 -3 9 -21 27 -41
25 -26 19 -23 -27 15 -33 27 -63 52 -66 57 -3 4 -15 9 -26 11 -45 9 -85 39
-111 83 -45 77 -65 92 -32 25 17 -34 29 -62 28 -62 -2 0 -19 5 -38 11 -46 13
-155 12 -183 -2 -30 -16 -66 -58 -74 -87 -6 -26 12 -68 34 -76 11 -5 11 -1 -2
16 -47 68 19 138 125 133 98 -4 139 -16 165 -47 14 -16 25 -33 25 -38 0 -15
-41 -2 -75 25 -44 33 -52 32 -20 -2 14 -15 23 -35 20 -44 -7 -21 25 -57 64
-70 17 -6 31 -15 31 -19 0 -14 -39 -3 -68 20 -44 34 -142 132 -142 141 0 5 -4
9 -10 9 -21 0 -7 -21 66 -99 l76 -81 -29 -11 c-15 -5 -39 -20 -52 -32 -25 -23
-56 -85 -47 -94 3 -3 10 5 15 18 11 30 36 52 81 72 55 25 63 24 107 -11 23
-18 57 -39 77 -47 43 -18 46 -25 8 -20 -37 5 -110 34 -145 58 -16 10 -31 16
-34 13 -10 -10 47 -53 94 -71 l43 -17 -22 -19 -23 -20 32 15 c24 12 113 19
113 9 0 0 -16 -17 -35 -36 -19 -19 -35 -44 -35 -56 0 -19 -5 -23 -27 -20 -11
1 -23 -27 -19 -47 9 -42 26 -72 53 -94 28 -22 28 -22 3 -15 -88 28 -109 33
-116 27 -4 -4 -4 2 1 13 4 11 9 38 10 60 2 34 -2 45 -31 72 -19 18 -40 30 -47
27 -12 -4 -14 -65 -3 -115 l6 -26 -34 16 c-46 22 -61 47 -42 67 29 28 -6 96
-62 119 -19 8 -36 15 -37 15 -1 0 -5 -12 -8 -28 -8 -39 26 -110 57 -122 24 -9
36 -22 19 -19 -21 3 -26 -2 -13 -12 12 -9 11 -10 -5 -4 -27 9 -25 9 -73 0 -61
-11 -90 -57 -59 -98 17 -23 73 -7 115 33 32 30 69 39 110 26 31 -10 19 -24
-16 -18 -24 3 -35 -3 -61 -35 -25 -31 -31 -45 -28 -76 6 -64 19 -65 77 -6 34
34 50 59 47 70 -3 10 3 25 12 33 14 12 19 13 41 1 14 -8 36 -15 50 -15 14 -1
40 -7 59 -14 l34 -12 -30 -13 c-56 -23 -91 -78 -78 -121 5 -15 10 -17 28 -10
12 5 35 11 50 15 31 6 57 53 57 100 0 25 2 26 33 19 17 -4 50 -10 72 -14 33
-6 37 -8 20 -15 -55 -22 -85 -82 -71 -141 5 -20 10 -23 20 -15 9 7 16 7 24 -1
7 -7 12 -9 12 -5 0 4 8 3 19 -2 10 -6 35 -11 55 -13 52 -3 53 -13 3 -32 -48
-18 -97 -21 -97 -6 0 6 -8 13 -17 17 -10 3 -26 13 -35 21 -21 18 -68 8 -68
-13 0 -23 60 -56 93 -52 42 5 27 -17 -16 -24 -26 -4 -49 1 -84 18 -54 26 -103
30 -103 9 0 -24 29 -39 78 -41 62 -3 67 -4 58 -13 -4 -4 -11 -7 -14 -8 -4 0
-15 -4 -25 -9 -10 -4 -28 -3 -40 3 -34 16 -63 20 -78 12 -19 -12 7 -40 37 -40
26 0 34 -19 9 -21 -8 -1 -19 -3 -25 -4 -5 -1 -17 -3 -25 -4 -22 -2 -39 -39
-25 -56 15 -18 45 -5 77 33 23 27 31 16 14 -16 -6 -12 -5 -24 5 -37 14 -19 15
-19 35 2 14 14 21 34 22 61 1 36 5 42 39 61 43 23 46 20 19 -18 -22 -31 -37
-81 -25 -81 15 0 74 60 74 75 0 25 22 63 39 68 9 3 25 8 36 12 14 6 11 -1 -11
-21 -39 -36 -50 -67 -29 -84 13 -11 20 -9 40 10 13 12 27 37 31 54 9 43 39 68
109 94 l60 22 -30 -26 c-82 -70 -104 -97 -84 -109 31 -20 102 34 113 85 4 24
16 35 60 57 58 28 84 26 49 -4 -30 -27 -54 -68 -49 -84 3 -8 -8 -22 -27 -34
-17 -11 -42 -38 -54 -60 -20 -37 -60 -164 -71 -227 -5 -34 6 -33 110 16 42 20
80 36 83 36 3 0 24 12 47 28 23 15 57 36 76 47 37 21 42 28 62 83 15 38 22 40
39 9 16 -30 67 -50 93 -36 22 12 40 2 19 -10 -7 -5 -26 -37 -42 -72 l-28 -64
24 -12 c18 -10 31 -10 52 -2 15 6 41 11 57 11 16 -1 51 10 77 23 27 13 51 19
55 14 10 -17 24 -9 50 31 15 22 33 40 40 40 8 0 14 6 14 14 0 17 36 25 70 15
14 -4 21 -7 17 -8 -4 -1 -3 -10 3 -21 6 -11 7 -20 3 -20 -5 0 -10 -12 -11 -27
-1 -22 0 -24 8 -13 5 8 10 10 10 4 0 -7 11 -9 26 -6 24 4 25 3 15 -17 -7 -11
-8 -21 -3 -21 4 0 14 -16 21 -35 7 -19 18 -35 25 -35 7 0 25 -13 41 -30 15
-16 32 -27 37 -24 11 7 10 61 -2 85 -7 13 -7 19 0 19 15 0 12 26 -6 61 -18 35
-16 39 19 43 24 3 24 1 22 -53 -2 -31 1 -65 5 -76 11 -28 89 -113 90 -97 0 6
-3 12 -7 12 -5 0 -21 20 -36 44 -40 63 -40 136 -1 177 15 16 33 29 40 29 6 0
19 -20 28 -45 10 -25 22 -43 27 -39 20 12 49 -9 73 -52 14 -24 23 -52 21 -62
-7 -36 -25 -72 -45 -92 l-22 -22 -24 23 c-13 12 -24 18 -24 11 0 -17 30 -42
50 -42 19 0 65 48 83 88 l11 24 29 -34 c32 -37 27 -20 -9 28 -13 17 -21 33
-19 36 2 2 7 28 10 58 4 30 8 56 9 57 1 2 20 -22 42 -53 21 -30 45 -62 52 -69
6 -7 12 -18 12 -23 0 -6 3 -12 8 -14 16 -7 62 -77 54 -82 -11 -7 -46 25 -68
64 -20 33 -41 42 -24 10 6 -11 8 -20 5 -20 -8 0 27 -53 45 -67 19 -16 50 -17
50 -2 0 6 7 8 18 4 12 -4 14 -3 6 5 -12 12 -6 63 6 55 5 -3 6 4 3 15 -7 27 28
27 45 0 10 -16 9 -27 -2 -55 -8 -19 -13 -45 -11 -57 5 -22 12 -30 49 -53 16
-10 14 -31 -9 -87 -4 -10 -3 -18 3 -18 9 0 27 56 36 112 2 14 8 35 13 45 5 10
8 35 6 56 -2 34 0 36 17 27 10 -6 25 -22 32 -37 13 -26 61 -61 86 -62 24 -2
-1 139 -29 165 -27 25 -23 36 24 67 23 15 57 39 75 54 l33 27 -7 -30 c-14 -51
-8 -94 17 -120 32 -34 44 -30 63 19 23 60 21 72 -18 111 l-35 34 33 28 c81 73
74 71 68 19 -4 -42 -2 -49 29 -81 34 -35 69 -45 69 -19 0 8 6 15 14 15 8 0 36
21 62 47 26 27 45 40 41 31 -3 -9 -9 -32 -12 -50 -8 -41 -27 -68 -52 -72 -39
-8 -93 -36 -99 -51 -18 -47 50 -42 98 6 l30 30 -7 -28 c-9 -37 -29 -58 -80
-83 -53 -26 -83 -56 -68 -71 10 -10 63 -2 63 10 0 8 56 71 63 71 2 0 2 -13 -2
-29 -4 -19 -21 -41 -48 -60 -24 -17 -43 -35 -43 -40 0 -21 24 -22 51 -2 32 24
39 10 14 -23 -19 -24 -19 -47 -2 -70 13 -18 14 -18 31 0 14 14 17 27 12 63 -5
42 -4 44 9 27 8 -11 15 -24 15 -29 0 -15 45 -3 46 13 1 20 -25 62 -48 78 -13
10 -17 21 -12 45 6 36 24 61 24 34 0 -26 33 -88 44 -84 20 7 14 68 -11 105
-22 31 -24 41 -17 81 l9 46 3 -44 c4 -49 32 -87 57 -77 19 7 15 54 -8 89 -33
52 -35 79 -11 147 l23 65 -1 -60 c-1 -59 14 -115 30 -115 36 0 44 93 11 131
-17 20 -20 32 -14 73 3 27 11 59 18 70 11 21 12 20 14 -4 6 -53 24 -100 39
-100 11 0 13 -9 9 -39 -3 -29 2 -52 23 -93 34 -67 132 -200 145 -195 10 3 39
74 38 97 0 8 7 38 14 65 8 28 17 79 19 115 3 36 7 74 9 85 2 11 -7 37 -20 57
-30 48 -29 57 3 54 48 -5 106 37 88 65 -3 5 2 9 11 9 13 0 16 -6 11 -25 -4
-14 -2 -25 2 -25 5 0 17 -18 27 -40 10 -22 24 -45 31 -51 19 -16 50 5 63 41 5
17 19 42 30 56 11 14 23 46 27 71 5 32 12 47 25 50 16 5 16 9 4 51 -14 52 -17
134 -3 126 7 -5 12 9 10 27 -2 16 45 -6 70 -32 l27 -29 13 30 c15 35 24 38 33
9 5 -15 10 -17 20 -9 8 6 16 7 19 2 9 -15 55 -20 59 -7 3 6 18 10 35 9 61 -4
66 36 7 57 -19 7 -36 21 -38 31 -3 10 -15 19 -29 20 -42 2 -47 3 -54 10 -4 4
1 19 10 33 l17 26 29 -31 c38 -41 91 -61 151 -59 61 3 65 17 5 17 -47 0 -110
27 -140 61 -18 19 -28 92 -15 105 3 4 23 -1 44 -9 51 -22 56 -11 7 14 -23 11
-44 26 -47 32 -4 6 7 3 25 -6 17 -9 37 -14 43 -12 7 2 -5 11 -26 20 -21 9 -36
20 -33 25 3 5 31 -4 63 -19 58 -29 86 -37 134 -38 20 -1 31 -11 52 -50 15 -27
27 -58 27 -69 0 -22 -32 -38 -52 -26 -10 6 -10 4 0 -8 15 -19 49 -13 62 12 11
20 4 64 -16 104 -8 16 -14 30 -14 31 0 1 16 2 36 3 20 1 39 4 42 7 5 5 -49 9
-75 6 -6 -1 -35 21 -64 49 l-54 51 95 -6 c52 -3 121 -6 153 -6 31 0 57 -4 57
-9 0 -13 -24 -18 -78 -16 -44 1 -50 -1 -38 -12 15 -15 104 -21 124 -8 13 8 17
56 4 56 -5 0 -14 10 -21 23 -6 12 -25 31 -41 42 -36 24 -39 38 -7 30 29 -8 40
-10 98 -19 65 -11 118 -44 159 -98 41 -57 54 -55 16 2 -29 43 -107 100 -139
100 -10 0 -26 4 -35 9 -9 5 -39 11 -66 14 -58 7 -73 17 -25 17 71 0 229 56
229 81 0 12 8 13 -100 -22 -92 -30 -240 -49 -240 -32 0 5 -10 9 -23 11 -12 1
-47 10 -77 20 -30 10 -70 18 -88 16 -25 -1 -44 7 -81 37 -60 47 -73 64 -40 54
13 -4 41 -8 64 -8 22 1 46 -4 53 -9 8 -8 12 -6 12 5 0 8 5 17 12 19 27 9 -13
82 -60 107 -37 20 -36 7 3 -32 19 -19 35 -45 35 -57 0 -19 -6 -15 -42 26 -24
27 -69 76 -100 110 -32 33 -58 64 -58 68 0 4 17 4 38 0 20 -4 50 -7 65 -8 19
0 34 -8 44 -23 9 -13 25 -29 37 -35 16 -9 15 -5 -8 22 l-28 34 41 12 c57 16
91 41 91 64 0 21 -25 50 -43 50 -9 0 -9 -2 -1 -8 6 -4 16 -17 23 -29 10 -20 8
-24 -17 -37 -16 -8 -48 -17 -71 -20 -38 -4 -47 -1 -80 30 -21 18 -64 45 -94
60 -56 25 -80 44 -56 44 6 0 28 -10 47 -22 20 -12 32 -16 28 -9 -5 7 -22 22
-40 33 -27 17 -28 19 -6 13 14 -4 37 -13 53 -20 15 -8 27 -10 27 -5 0 5 -16
17 -35 26 -19 9 -35 20 -35 24 0 11 27 38 52 51 45 24 146 -16 184 -73 26 -38
31 -26 6 14 -37 59 -103 97 -163 93 -22 -1 -25 2 -21 21 4 24 32 55 32 36 0
-17 64 -52 71 -40 6 9 11 8 22 -1 22 -18 76 -31 82 -20 7 10 -8 41 -32 65 -13
13 -14 19 -5 22 14 4 -28 42 -48 42 -6 0 -8 5 -5 10 4 6 -5 10 -19 10 -30 0
-29 0 -16 34 7 19 6 26 -3 27 -41 3 -58 7 -82 23 -15 10 -24 20 -20 24 3 4 10
0 15 -8 7 -10 10 -11 10 -2 0 6 -1 13 -2 15 -5 7 25 47 36 47 8 0 16 6 19 13
3 7 24 19 47 27 34 11 40 17 36 34 -3 12 6 33 26 59 17 22 32 47 33 56 1 9 10
34 21 56 21 42 21 85 1 84 -28 -1 -126 -25 -133 -32 -4 -4 -14 -7 -22 -7 -12
0 -11 5 5 23 14 15 18 28 13 42 -4 11 -6 23 -3 27 2 5 -8 19 -24 33 -15 13
-23 25 -18 26 6 1 19 3 30 4 57 8 80 16 89 32 5 10 33 41 62 68 28 28 60 64
70 80 10 17 24 34 31 38 17 11 67 97 60 103 -15 15 -225 -1 -275 -21 -23 -10
-52 -29 -63 -43 -15 -20 -22 -23 -28 -13 -10 16 -37 9 -86 -25 -36 -24 -36
-24 -30 -2 4 12 16 31 26 42 11 11 19 23 19 26 0 10 48 30 71 30 43 0 116 79
89 95 -15 9 -76 -21 -111 -54 -18 -17 -34 -30 -36 -28 -2 2 13 30 33 61 34 51
47 61 97 72 4 1 17 2 30 3 33 2 69 33 61 54 -9 24 -52 19 -93 -11 -27 -20 -31
-21 -23 -6 19 36 52 58 83 56 41 -3 106 39 92 61 -6 9 -63 -1 -77 -14 -6 -5
-16 -9 -24 -9 -8 0 -4 12 14 35 21 28 31 34 48 29 27 -10 62 -7 87 6 15 8 17
15 10 28 -7 14 -19 17 -48 15 l-38 -4 32 18 c41 23 64 55 53 72 -13 22 -59 5
-66 -24 -3 -13 -13 -30 -22 -37 -13 -11 -15 -11 -10 2 8 23 -9 60 -28 60 -14
0 -16 -8 -11 -52 3 -38 0 -61 -11 -80 -18 -31 -36 -38 -28 -10 16 57 17 109 1
122 -30 25 -45 -12 -31 -75 4 -16 9 -41 11 -54 4 -29 -19 -91 -35 -91 -7 0 -8
6 -2 18 18 36 -5 112 -34 112 -17 0 -35 -41 -24 -55 5 -5 10 -19 12 -30 1 -11
7 -23 12 -26 17 -13 8 -56 -19 -97 -26 -39 -50 -57 -40 -29 9 23 11 82 4 109
-5 17 -3 28 4 31 27 10 -21 38 -68 40 -41 1 -51 -3 -75 -30 l-29 -32 0 69 0
68 42 -3 c60 -4 81 7 105 56 23 47 20 56 -18 62 -33 6 -73 -15 -104 -55 l-26
-33 -1 45 c0 25 -2 65 -3 90 -3 54 6 69 38 63 31 -6 146 55 146 78 0 4 -18 14
-41 23 -39 16 -43 16 -87 -6 -29 -14 -48 -31 -50 -43 -7 -42 -14 -51 -21 -25
-10 37 8 76 50 107 21 15 45 43 53 60 15 32 15 33 -9 49 -37 24 -71 11 -95
-36 -11 -21 -20 -46 -20 -55 0 -8 -4 -15 -10 -15 -5 0 -10 -7 -10 -16 0 -8 -4
-13 -9 -10 -5 3 -7 14 -4 24 6 24 -59 82 -92 82 -14 0 -28 0 -32 0 -5 0 -7 -7
-7 -15 1 -8 2 -24 3 -34 2 -34 50 -81 82 -81 16 0 29 5 29 12 0 17 44 -32 46
-51 1 -9 5 -24 9 -35 7 -16 6 -17 -14 -6 -13 6 -45 17 -72 24 -47 13 -49 12
-49 -8 0 -21 25 -65 44 -78 5 -4 32 -10 58 -13 l48 -7 0 -43 c0 -24 3 -50 6
-59 10 -26 -12 -18 -24 8 -13 28 -45 52 -84 61 -21 5 -27 3 -33 -15 -5 -15
-13 -20 -26 -17 -10 3 -22 1 -25 -4 -3 -5 -9 -7 -14 -4 -4 3 -22 -7 -39 -21
l-31 -26 4 39 c3 39 24 83 38 83 5 0 8 5 8 12 0 6 -7 4 -18 -5 -25 -23 -32
-21 -32 7 0 31 -19 85 -41 116 -17 24 -17 25 14 53 17 15 45 31 62 36 27 8 28
9 6 10 -38 1 -109 -37 -128 -70 -17 -29 -33 -38 -33 -19 0 5 -20 38 -44 74
l-43 63 14 43 c8 23 12 48 9 55 -2 7 1 21 8 30 12 17 14 17 39 0 16 -10 27
-13 27 -6 0 6 -11 18 -24 26 -23 15 -24 21 -20 83 2 37 6 83 10 103 5 29 1 45
-20 78 -22 34 -24 42 -12 47 8 3 20 3 26 -1 20 -12 80 27 80 52 0 13 6 23 14
23 9 0 12 -7 9 -21 -3 -12 -2 -24 3 -28 5 -3 19 -27 31 -53 13 -27 29 -48 37
-48 17 0 52 42 62 73 4 12 13 27 20 34 14 14 34 76 34 106 0 9 7 17 15 17 19
0 19 21 1 65 -9 22 -11 37 -5 41 6 4 6 11 -2 20 -9 11 -8 19 6 34 15 17 16 22
4 37 -13 16 -12 17 4 4 11 -9 17 -10 17 -2 0 8 6 8 22 -1 37 -22 57 -41 52
-50 -3 -4 -3 -8 1 -8 3 0 14 14 24 31 19 31 19 31 31 9 8 -15 15 -19 22 -12 8
8 19 6 36 -6 28 -18 32 -19 41 -4 3 6 24 13 45 16 22 4 42 9 45 12 10 10 -49
54 -71 54 -14 0 -18 5 -15 15 4 10 -5 17 -30 24 -20 6 -40 8 -45 5 -13 -8 -9
29 6 48 12 17 14 17 32 -3 37 -42 75 -61 128 -66 32 -3 62 0 72 6 16 10 15 11
-11 8 -40 -6 -113 18 -149 47 -22 18 -30 35 -33 69 -6 53 5 62 43 42 53 -27
60 -15 9 16 -47 29 -37 34 21 12 12 -4 15 -3 10 5 -4 7 -11 12 -16 12 -22 0
-61 21 -55 30 4 6 30 -2 64 -20 32 -16 82 -32 110 -36 46 -6 56 -11 77 -43 13
-20 26 -51 30 -68 6 -28 3 -33 -19 -38 -14 -4 -32 -4 -39 0 -7 3 -5 0 5 -8 23
-19 56 -10 67 17 7 19 -3 66 -25 119 -6 14 -1 17 31 19 39 1 39 1 -7 7 -37 5
-57 15 -93 49 -25 23 -46 44 -46 46 0 2 37 2 83 0 45 -1 112 -4 150 -5 66 -1
86 -12 47 -24 -11 -3 -43 -4 -71 -1 -53 6 -59 -5 -12 -21 24 -8 54 -9 99 -4
40 4 15 74 -41 117 -19 14 -35 30 -35 34 0 4 21 3 48 -2 26 -4 57 -10 70 -13
72 -13 134 -53 167 -109 18 -29 25 -35 24 -21 0 23 -41 73 -84 101 -32 21 -82
40 -130 49 -106 18 -121 25 -59 25 21 0 57 5 79 11 51 14 145 60 145 72 0 5
-8 6 -17 2 -99 -37 -219 -64 -280 -61 -40 1 -68 7 -71 14 -2 7 -7 10 -12 7 -4
-2 -32 3 -61 12 -30 9 -70 15 -90 14 -32 -1 -44 6 -90 49 l-54 51 35 -7 c19
-3 49 -7 65 -8 17 -1 36 -5 44 -10 9 -6 12 -5 8 1 -4 6 0 16 8 23 8 7 15 18
15 26 0 20 -74 94 -94 94 -13 0 -7 -11 23 -42 23 -22 41 -51 41 -62 0 -17 -7
-13 -41 24 -22 25 -59 65 -82 90 -23 25 -53 58 -67 74 l-25 28 40 -8 c22 -4
52 -8 67 -8 17 -1 43 -16 69 -41 l43 -40 -27 37 c-32 43 -33 48 -10 48 26 0
101 39 107 57 7 18 -19 63 -36 63 -6 0 -4 -8 5 -18 35 -39 12 -62 -75 -78 -33
-5 -42 -2 -85 33 -26 22 -72 50 -100 63 -29 13 -53 27 -53 32 0 13 12 10 49
-13 18 -11 36 -18 38 -15 3 3 -11 15 -31 27 -50 29 -39 35 18 10 25 -11 46
-16 46 -12 0 5 -13 14 -30 21 -51 21 -54 34 -16 64 19 14 47 26 63 26 44 -1
107 -34 141 -76 18 -21 32 -33 32 -27 0 13 -44 69 -75 95 -20 17 -60 30 -100
32 -22 2 -25 6 -25 36 0 27 16 25 56 -5 18 -14 35 -21 39 -16 3 6 23 2 47 -9
55 -24 73 -18 53 20 -8 16 -19 31 -24 35 -6 3 -8 12 -5 20 3 8 -6 21 -23 32
-15 9 -31 22 -34 27 -4 5 -16 7 -27 4 -19 -5 -19 -4 -5 29 8 19 12 38 9 41 -3
3 -6 0 -6 -6 0 -16 -68 5 -94 30 -11 11 -16 19 -11 18 23 -5 34 1 29 14 -6 16
40 51 100 79 29 13 36 21 28 29 -8 8 0 24 26 60 20 28 36 54 34 59 -1 5 7 27
18 49 21 42 26 75 11 84 -14 9 -124 -15 -143 -31 -9 -8 -18 -10 -22 -5 -3 5 1
15 9 22 22 18 13 75 -15 105 -13 14 -22 25 -19 26 2 0 11 2 19 4 8 1 30 5 48
8 24 4 51 25 103 79 39 40 77 85 85 100 8 15 20 31 26 35 15 9 52 61 61 85 6
16 -17 33 -32 24 -4 -3 -50 -7 -104 -10 -104 -6 -167 -26 -201 -65 -14 -16
-22 -18 -32 -10 -10 8 -24 6 -56 -11 -24 -12 -46 -27 -50 -33 -4 -7 -6 -1 -5
12 2 33 71 101 103 101 43 0 113 48 99 69 -3 6 0 11 7 11 8 0 7 4 -4 11 -21
12 -81 -16 -117 -55 -42 -44 -42 -29 -1 33 42 63 63 76 126 80 12 0 33 10 48
22 22 17 24 24 15 35 -15 18 -64 12 -88 -10 -28 -26 -33 -18 -9 14 17 23 30
30 55 30 37 0 82 20 102 44 20 24 -8 30 -60 12 -24 -8 -44 -14 -46 -13 -1 2
10 17 24 35 20 26 30 31 47 26 53 -18 112 10 87 40 -9 10 -22 13 -43 9 -22 -4
-29 -3 -24 5 4 7 13 12 19 12 7 1 22 9 35 20 30 25 25 55 -8 55 -19 0 -29 -9
-44 -40 -10 -22 -20 -35 -22 -30 -1 6 -5 22 -8 38 -7 30 -32 37 -38 10 -2 -10
0 -35 4 -55 7 -32 4 -41 -17 -64 -27 -29 -30 -22 -16 40 6 25 6 47 -1 62 -12
27 -37 32 -39 9 -1 -8 -2 -21 -3 -27 -1 -7 2 -29 6 -48 5 -19 10 -42 12 -50 4
-20 -13 -66 -29 -80 -12 -10 -13 -5 -8 24 7 45 -13 96 -38 96 -29 0 -28 -80 2
-116 6 -8 8 -25 5 -40 -7 -26 -47 -94 -56 -94 -3 0 -4 40 -3 90 1 49 -2 92 -7
95 -5 3 -29 6 -54 7 -45 1 -95 -25 -96 -49 0 -7 -3 -13 -7 -13 -5 0 -6 32 -5
71 4 70 4 71 28 65 14 -4 41 -4 60 0 28 5 38 14 58 53 27 54 20 68 -34 64 -26
-2 -45 -13 -72 -42 -21 -22 -39 -35 -39 -28 -1 7 -3 49 -5 95 -3 86 -3 86 43
82 20 -1 80 25 93 41 3 3 15 11 28 18 26 14 21 28 -16 43 -43 16 -55 16 -87 0
-46 -22 -66 -43 -60 -63 3 -9 1 -20 -5 -24 -10 -6 -12 -3 -13 30 -1 27 13 75
23 75 12 0 65 52 83 82 16 25 15 27 -10 43 -19 13 -33 15 -51 9 -26 -9 -62
-63 -65 -96 -1 -10 -5 -18 -9 -18 -4 0 -8 -7 -8 -16 0 -8 -5 -12 -11 -9 -6 4
-8 13 -5 21 11 30 -59 84 -108 84 -23 0 -25 -3 -22 -37 4 -51 56 -97 101 -90
35 6 48 -7 60 -62 7 -32 7 -33 -17 -18 -12 9 -36 17 -53 18 -16 2 -35 7 -42
12 -19 14 -24 -10 -9 -47 17 -41 47 -59 101 -60 l40 -1 2 -65 c2 -59 0 -63
-13 -46 -8 11 -14 23 -14 26 0 4 -18 17 -40 29 -43 24 -70 22 -70 -4 0 -9 -8
-14 -22 -14 -31 2 -78 -18 -94 -39 -12 -15 -13 -12 -14 26 0 23 3 42 8 42 4 0
15 14 24 30 19 34 17 38 -7 14 -20 -20 -22 -18 -30 26 -3 19 -16 56 -29 82
l-23 48 23 21 c12 11 39 27 61 34 36 13 36 14 10 15 -41 0 -94 -28 -125 -66
l-26 -32 -47 71 c-47 72 -99 130 -99 110 0 -5 9 -18 19 -27 11 -10 27 -32 36
-49 8 -18 21 -41 28 -52 40 -63 52 -93 49 -113 -2 -12 -8 -19 -14 -16 -6 4 -8
-1 -3 -15 4 -12 2 -21 -4 -21 -6 0 -11 6 -11 14 0 22 -68 151 -91 172 l-22 19
22 -42 c21 -43 28 -83 13 -83 -5 0 -19 11 -32 25 -45 48 -25 222 32 270 37 31
74 32 105 3 22 -21 24 -21 17 -3 -17 49 -71 59 -125 22 -46 -30 -70 -85 -76
-174 -3 -40 -8 -73 -10 -73 -3 0 -53 43 -79 68 -8 7 -14 10 -14 5 0 -4 24 -32
54 -61 35 -34 56 -64 60 -85 3 -18 8 -43 11 -56 2 -14 9 -29 15 -35 5 -5 10
-16 10 -23 0 -7 11 -31 25 -53 35 -56 31 -64 -5 -10 -16 25 -30 41 -30 35 0
-23 -33 40 -34 66 -1 30 -10 37 -22 18 -9 -15 -13 -61 -16 -169 -2 -62 -7 -88
-18 -97 -13 -10 -13 -12 3 -18 9 -4 17 -15 17 -24 0 -22 36 -98 66 -136 15
-19 20 -35 15 -44 -5 -7 -6 -22 -4 -32 10 -37 -14 -18 -42 34 -16 28 -31 54
-35 57 -3 3 -34 40 -67 82 -58 75 -60 79 -58 131 2 38 10 66 31 98 38 61 40
112 5 186 -35 73 -89 141 -96 122 -10 -28 -23 -114 -18 -122 3 -5 5 -36 4 -69
0 -46 5 -70 21 -96 20 -33 35 -112 20 -112 -4 0 -19 19 -34 43 -14 23 -43 65
-62 92 -35 48 -36 52 -22 80 34 71 46 101 49 122 2 11 8 27 14 35 13 16 27 76
24 103 -5 49 -35 125 -56 145 -31 29 -60 14 -69 -37 -17 -87 -17 -121 -3 -149
21 -43 38 -154 29 -193 l-8 -35 -39 54 c-51 68 -81 121 -89 157 -3 15 -8 34
-9 41 -2 7 -9 18 -15 24 -7 7 -12 19 -12 27 0 22 -61 144 -79 158 -9 7 -33 21
-53 31 -21 11 -36 21 -34 23 3 2 -12 4 -32 4 -36 0 -37 -1 -38 -40 -1 -22 5
-53 13 -69 21 -40 81 -93 113 -100 29 -5 99 -67 119 -104 11 -21 -1 -33 -14
-12 -3 5 -45 28 -93 51 -48 22 -102 48 -121 57 -18 9 -44 33 -57 53 -13 21
-27 40 -32 43 -5 3 -7 17 -4 31 2 14 0 25 -6 25 -11 0 -10 12 9 95 10 44 66
159 107 223 24 37 4 38 -28 1 -35 -40 -90 -145 -90 -170 0 -10 -4 -20 -8 -23
-5 -3 -9 34 -9 82 0 90 -3 109 -21 153 -13 32 -70 99 -84 99 -5 0 9 -21 31
-46z m1 -233 c11 -21 14 -61 4 -61 -14 0 -34 31 -34 54 0 31 15 34 30 7z m49
-98 c5 -18 7 -34 3 -37 -7 -7 -32 49 -32 72 0 24 19 1 29 -35z m-62 -14 c6 -6
10 -17 8 -23 -2 -6 -6 -23 -9 -38 -9 -41 -37 -37 -32 5 2 17 4 40 5 50 1 20
12 22 28 6z m54 -53 c7 -14 9 -37 5 -51 -10 -41 -35 -14 -33 36 1 44 12 50 28
15z m42 -99 c-3 -5 -10 -4 -15 1 -6 6 -7 16 -3 22 6 9 9 9 16 -1 4 -7 5 -17 2
-22z m-120 17 c9 -3 13 -13 10 -25 -7 -26 -28 -19 -29 9 -1 24 -2 24 19 16z
m-55 -74 c-4 -35 -49 -35 -59 0 -15 55 -13 59 26 41 29 -12 35 -20 33 -41z
m122 46 c0 -17 -14 -29 -23 -20 -8 8 3 34 14 34 5 0 9 -6 9 -14z m60 -27 c0
-5 -9 -9 -20 -9 -13 0 -18 5 -14 14 6 15 34 11 34 -5z m-120 -20 c0 -5 -7 -9
-15 -9 -8 0 -15 7 -15 15 0 9 6 12 15 9 8 -4 15 -10 15 -15z m206 -26 c-2 -2
-12 -6 -22 -8 -11 -2 -29 -7 -41 -11 -17 -5 -23 -2 -23 9 0 21 50 37 72 23 9
-6 16 -12 14 -13z m-211 -2 c3 -5 1 -12 -5 -16 -5 -3 -10 1 -10 9 0 18 6 21
15 7z m105 -26 c-14 -17 -30 -11 -30 10 0 15 33 26 38 13 2 -5 -2 -15 -8 -23z
m-163 -22 c-3 -3 -11 -2 -17 2 -9 6 -9 10 1 16 14 8 27 -7 16 -18z m365 10
c46 -18 138 -74 138 -84 0 -12 -89 10 -131 32 -43 22 -133 30 -176 15 -18 -6
-20 -4 -16 12 9 36 119 51 185 25z m-208 -47 c-3 -9 -16 -16 -28 -16 -21 1
-21 1 3 21 26 22 35 20 25 -5z m457 -148 c17 -24 34 -50 37 -58 3 -8 30 -51
60 -95 52 -76 53 -78 18 -45 -21 19 -45 49 -53 65 -9 17 -25 37 -37 45 -40 29
-93 57 -122 64 -16 4 -35 13 -42 19 -8 6 -21 12 -29 13 -8 1 -22 6 -31 10 -22
9 -29 11 -47 13 -8 0 -15 4 -15 9 0 11 59 35 73 29 7 -3 23 1 36 8 34 18 111
-21 152 -77z m-371 62 c22 -11 53 -20 70 -20 24 0 30 -4 30 -21 0 -12 8 -23
19 -26 12 -3 17 -11 14 -24 -5 -18 -6 -18 -44 1 -46 24 -67 26 -50 7 6 -8 29
-20 51 -27 43 -14 76 -44 82 -74 3 -18 -2 -19 -52 -17 -73 3 -93 18 -130 97
-18 36 -34 63 -38 60 -5 -5 4 -29 30 -79 8 -16 6 -17 -12 -7 -11 6 -20 15 -20
21 0 6 -4 8 -8 5 -4 -2 -18 4 -31 14 -24 17 -24 18 -4 24 23 7 45 49 37 71 -8
20 9 19 56 -5z m1025 -59 c22 -66 29 -136 16 -158 -9 -16 -10 -14 -11 12 0 17
-12 54 -25 84 -18 38 -24 63 -20 83 9 41 21 35 40 -21z m-150 -27 c20 -48 19
-54 -5 -24 -18 23 -27 60 -15 60 3 0 12 -16 20 -36z m-46 -49 l0 -30 -13 31
c-7 17 -17 41 -20 55 l-7 24 20 -25 c11 -14 20 -38 20 -55z m161 -17 c6 -18
19 -46 27 -61 9 -17 12 -39 9 -55 l-6 -27 15 28 c9 15 17 27 19 27 6 0 -1 -36
-11 -55 -12 -24 -10 -63 4 -90 6 -11 12 -24 13 -30 1 -11 30 -8 43 4 4 4 16
38 26 76 11 38 27 75 37 82 20 14 48 18 40 5 -3 -5 6 -20 20 -35 13 -14 24
-28 24 -30 0 -2 -12 -17 -26 -32 -21 -23 -25 -35 -21 -62 5 -31 -5 -44 -18
-23 -11 17 -23 11 -56 -25 -25 -27 -35 -32 -45 -24 -8 6 -12 15 -9 19 7 12
-44 50 -68 50 -11 0 -26 8 -33 18 -16 21 -17 32 -4 32 6 0 10 -7 10 -15 0 -17
9 -19 29 -6 8 6 11 18 7 37 -3 16 -8 46 -12 67 -3 21 -12 55 -21 75 -18 43
-25 82 -13 82 4 0 13 -15 20 -32z m-80 -138 c41 -127 41 -129 23 -154 -22 -31
-30 -32 -38 -6 -3 11 -18 29 -32 40 -14 11 -23 23 -19 27 3 4 19 -6 34 -20 25
-24 62 -37 62 -21 0 3 -21 58 -46 121 -25 63 -48 129 -50 147 -9 62 22 0 66
-134z m30 134 c0 -8 -4 -12 -10 -9 -5 3 -10 10 -10 16 0 5 5 9 10 9 6 0 10 -7
10 -16z m-713 -45 c26 -30 101 -53 142 -44 20 4 38 -2 72 -26 48 -35 138 -120
139 -131 0 -11 -84 29 -142 67 -29 20 -71 40 -93 46 -43 12 -92 35 -111 53 -6
6 -21 19 -33 28 -11 10 -21 25 -21 33 0 20 17 11 47 -26z m-205 0 c18 -10 38
-13 108 -19 8 0 2 -7 -15 -14 -23 -10 -103 -12 -111 -2 -1 0 -5 11 -8 24 -8
25 -4 27 26 11z m204 -55 c16 -14 43 -32 59 -39 26 -12 27 -14 12 -21 -10 -3
-28 -2 -40 4 -23 12 -51 16 -77 12 -8 -1 8 -8 35 -14 49 -12 50 -12 25 -26
-14 -7 -44 -15 -67 -16 -39 -3 -103 -27 -103 -39 0 -3 17 2 38 10 20 9 51 15
68 13 18 -1 38 2 45 8 20 16 48 25 102 33 42 7 52 5 80 -15 18 -13 49 -32 70
-44 51 -28 47 -36 -5 -9 -22 11 -56 21 -74 21 -36 0 -108 -24 -163 -55 -22
-12 -45 -17 -63 -13 -17 3 -28 1 -28 -5 0 -19 -50 0 -75 29 l-23 27 3 -65 c2
-66 11 -100 25 -100 4 0 10 -7 13 -14 5 -12 2 -13 -16 -5 -12 5 -34 14 -49 20
l-27 11 20 34 c23 42 25 61 3 40 -8 -9 -22 -16 -29 -16 -8 0 -21 -10 -29 -22
-27 -38 -18 -12 24 69 32 62 40 89 40 131 l0 52 43 -1 c23 -1 56 6 72 15 41
22 57 20 91 -10z m762 -65 c-3 -8 -7 -3 -11 10 -4 17 -3 21 5 13 5 -5 8 -16 6
-23z m-1802 12 c7 -1 10 -14 8 -33 -5 -37 -8 -41 -34 -45 -15 -2 -20 3 -20 20
0 13 -5 28 -11 34 -16 16 -2 33 24 29 12 -3 27 -5 33 -5z m2154 -56 l0 -65
-40 28 c-46 32 -49 39 -15 48 14 4 24 11 22 18 -3 9 19 34 31 36 1 0 2 -29 2
-65z m-672 -142 c38 -42 111 -163 98 -163 -3 0 -17 5 -32 10 -14 6 -58 15 -97
20 -46 7 -89 21 -124 41 -57 33 -78 32 -48 -1 10 -11 15 -20 11 -20 -3 0 1
-14 10 -32 9 -17 17 -44 18 -60 1 -15 15 -41 31 -58 41 -43 18 -37 -63 16
l-71 46 20 21 c30 32 30 99 0 132 -10 11 -20 26 -23 34 -7 24 -73 -77 -72
-110 0 -16 -1 -29 -3 -29 -11 0 -160 54 -167 61 -6 6 -5 14 2 21 17 17 15 59
-4 87 l-16 23 38 -20 c58 -29 179 -30 236 -1 24 12 50 27 58 34 22 19 79 23
120 8 19 -7 54 -34 78 -60z m639 2 c20 5 24 3 19 -12 -9 -31 -28 -107 -32
-128 -2 -11 -6 -29 -8 -40 -2 -11 -17 -35 -33 -52 l-29 -31 -33 20 c-34 22
-48 17 -53 -17 -2 -11 -11 -31 -21 -45 l-17 -24 0 27 c0 38 -1 41 -11 54 -7 8
-4 15 10 23 25 13 50 49 56 80 5 28 16 39 22 23 9 -25 32 -13 37 20 12 68 14
127 5 127 -5 0 -9 7 -9 16 0 12 10 8 36 -16 28 -24 42 -30 61 -25z m122 5 c11
0 23 5 26 11 4 6 18 -13 31 -42 21 -45 23 -57 13 -88 -11 -34 -33 -61 -51 -61
-4 0 -8 16 -8 35 0 41 -32 110 -55 119 -20 7 -32 -21 -18 -43 5 -9 9 -36 9
-61 -1 -42 -3 -45 -33 -51 -38 -7 -38 -7 -20 52 8 24 14 47 14 52 4 32 16 93
20 100 3 4 16 1 29 -7 13 -9 32 -16 43 -16z m-2189 10 c0 -5 -7 -7 -15 -4 -8
4 -15 8 -15 10 0 2 7 4 15 4 8 0 15 -4 15 -10z m1660 -22 c0 -34 10 -59 20
-53 5 3 11 1 15 -5 3 -5 3 -10 -2 -11 -37 -3 -61 -13 -83 -34 l-25 -24 2 67
c1 37 2 72 2 77 1 6 17 10 36 10 31 0 35 -3 35 -27z m253 17 c-3 -9 -8 -14
-10 -11 -3 3 -2 9 2 15 9 16 15 13 8 -4z m-2213 -15 c0 -5 -2 -10 -4 -10 -2 0
-12 -3 -22 -7 -16 -6 -17 -5 -4 10 17 19 30 22 30 7z m2174 -15 c-17 -26 -12
-45 12 -45 8 0 14 -4 14 -10 0 -12 -2 -12 -34 0 -18 6 -38 6 -63 -3 -36 -11
-38 -15 -43 -62 -5 -50 -5 -50 -42 -50 -20 0 -40 -3 -44 -7 -4 -5 -16 -8 -26
-8 -10 0 -21 -6 -24 -14 -9 -23 -44 -15 -51 12 -7 30 -3 33 49 37 73 7 98 20
98 54 0 25 5 30 30 36 18 4 44 23 63 46 20 24 41 39 55 39 22 0 22 -1 6 -25z
m-994 -96 c97 -31 98 -32 68 -37 -28 -3 -88 -63 -88 -87 0 -18 26 -25 74 -20
48 5 86 29 86 55 0 33 56 26 120 -15 30 -19 67 -41 83 -47 38 -17 34 -25 -15
-25 -75 0 -121 -5 -145 -14 -22 -8 -31 0 -16 14 8 9 14 57 6 57 -14 0 -42 -47
-37 -65 4 -14 2 -16 -4 -7 -22 32 -142 17 -142 -19 0 -10 -4 -21 -10 -24 -23
-14 -7 -23 50 -30 48 -6 66 -4 85 9 14 9 25 12 25 7 0 -5 -4 -13 -10 -16 -5
-3 -10 -11 -10 -16 0 -5 11 -2 24 6 19 13 29 14 45 5 12 -6 21 -8 21 -5 0 3
13 -1 30 -10 35 -18 54 -19 44 -2 -6 9 -4 9 8 -1 13 -11 21 -7 52 21 24 23 34
40 30 51 -5 12 0 16 19 16 14 0 29 -5 32 -10 5 -8 12 -7 23 2 15 11 15 11 5
-3 -7 -8 -14 -24 -16 -35 -2 -10 -8 -29 -15 -41 -7 -12 -11 -28 -10 -35 3 -11
-2 -14 -37 -17 -8 0 -14 -7 -13 -13 2 -9 -14 -14 -52 -15 -83 -3 -160 -24
-160 -43 0 -4 31 -17 69 -30 42 -15 67 -28 64 -36 -5 -14 35 -23 93 -18 52 4
55 -5 17 -54 -19 -25 -26 -46 -25 -70 3 -37 30 -98 39 -88 3 3 15 -1 27 -9 26
-19 45 -19 67 1 9 8 27 16 40 17 13 1 43 15 66 30 34 24 49 28 89 24 49 -4
135 21 142 42 2 6 12 11 21 11 10 0 24 11 31 25 7 14 15 23 17 21 3 -2 -1 -15
-8 -28 -7 -12 -15 -30 -19 -38 -4 -8 -20 -22 -36 -30 -15 -8 -34 -21 -42 -27
-7 -7 -17 -13 -20 -13 -4 0 -36 -27 -70 -60 -35 -33 -67 -58 -70 -56 -15 8
-156 -16 -186 -31 -17 -10 -41 -18 -52 -19 -35 -4 -99 -38 -101 -54 -5 -26
254 -140 316 -140 15 0 35 -8 43 -17 16 -20 48 -86 48 -101 0 -5 7 -15 15 -22
8 -7 13 -16 10 -20 -7 -11 84 -90 103 -90 8 0 40 -8 69 -17 45 -14 59 -15 86
-5 49 20 50 19 53 -18 1 -26 11 -42 40 -67 40 -34 61 -42 48 -20 -4 6 13 -10
37 -37 24 -28 43 -53 42 -56 -1 -4 23 -21 53 -39 30 -19 54 -37 54 -42 0 -5 8
-9 18 -9 19 0 82 -61 82 -80 0 -5 5 -10 11 -10 5 0 7 -5 4 -10 -4 -6 -10 -8
-15 -5 -15 9 -60 -6 -60 -21 0 -8 -10 -14 -22 -14 -19 0 -20 2 -8 10 12 8 12
10 1 10 -8 0 -11 7 -8 20 3 11 1 20 -5 20 -5 0 -21 14 -35 30 -13 17 -29 30
-35 30 -6 0 -23 11 -39 24 -42 35 -106 42 -187 21 -111 -29 -132 -30 -148 -7
-33 47 -310 183 -320 157 -7 -17 14 -94 32 -119 8 -11 14 -29 14 -39 0 -22 35
-91 69 -136 24 -32 26 -42 27 -150 1 -64 4 -127 8 -140 7 -30 -2 -68 -17 -74
-8 -3 -13 11 -15 38 -3 65 -28 124 -67 161 -33 31 -41 54 -36 106 1 10 -5 28
-13 40 -9 12 -16 35 -16 50 0 21 -7 31 -27 41 -16 6 -30 15 -33 19 -3 4 -14 5
-25 3 -11 -2 -25 -4 -32 -4 -27 -2 -71 -52 -78 -88 -11 -62 -24 -68 -52 -26
-37 55 -91 95 -76 57 4 -10 -13 -3 -43 19 -27 19 -59 38 -72 42 -20 6 -22 4
-18 -18 6 -37 41 -98 76 -136 22 -23 28 -36 20 -41 -9 -6 -9 -13 -1 -29 10
-17 9 -25 -4 -37 -8 -8 -15 -21 -15 -27 -1 -7 -12 -25 -26 -42 -15 -16 -23
-24 -20 -17 4 7 1 12 -7 12 -8 0 -21 8 -30 18 -15 16 -15 19 3 29 14 9 18 22
16 55 -2 48 -12 71 -27 62 -5 -3 -8 -1 -7 5 2 9 -32 33 -80 57 -2 1 -4 14 -6
28 -3 33 -16 47 -16 17 0 -12 -4 -19 -10 -16 -5 3 -10 14 -10 24 0 16 -86 110
-93 100 -23 -34 -29 -60 -18 -90 14 -40 39 -69 60 -69 12 0 12 -3 3 -12 -7 -7
-12 -21 -12 -33 0 -12 -6 -27 -12 -34 -11 -10 -10 -11 2 -6 9 3 24 17 34 30
l19 25 49 -76 c27 -41 55 -77 63 -80 8 -4 15 -10 15 -15 0 -6 -7 -6 -18 0 -9
5 -53 21 -97 36 -84 28 -129 65 -106 88 28 28 -4 123 -50 148 -17 9 -22 5 -34
-25 -19 -44 -19 -64 0 -100 l15 -29 -22 17 c-13 9 -45 29 -73 45 -27 16 -54
35 -60 41 -5 6 -21 22 -34 36 l-24 24 24 9 c21 8 22 10 7 16 -10 4 -25 5 -33
1 -9 -3 -15 0 -15 9 0 45 -44 87 -94 89 -14 1 -28 5 -32 9 -14 14 -24 7 -24
-16 0 -13 -5 -28 -11 -34 -13 -13 -3 -36 12 -28 5 3 6 0 3 -8 -8 -21 50 -77
79 -77 12 0 29 6 37 13 7 6 4 -1 -8 -17 -19 -25 -20 -31 -8 -55 7 -14 11 -32
8 -40 -3 -8 0 -11 7 -7 6 4 11 16 11 27 0 10 5 19 11 19 7 0 9 10 7 25 l-5 24
25 -19 c14 -11 30 -20 37 -20 7 0 18 -7 25 -14 10 -13 7 -14 -17 -12 -35 3
-49 -4 -98 -48 -35 -32 -35 -43 -1 -37 18 4 66 -21 60 -31 -3 -5 3 -18 15 -29
11 -11 23 -32 26 -47 29 -136 61 -190 130 -216 25 -10 44 -20 42 -22 -2 -2
-19 2 -38 10 -19 8 -47 16 -64 19 -16 3 -37 8 -46 12 -20 8 -79 115 -79 143 0
11 -7 26 -16 33 -9 8 -25 34 -36 58 -10 24 -21 42 -23 39 -7 -7 20 -68 43 -98
19 -25 35 -80 22 -80 -3 0 -19 13 -35 30 -16 16 -31 28 -34 25 -7 -8 51 -65
66 -65 11 0 33 -29 33 -44 0 -3 -15 3 -32 14 -18 11 -48 20 -66 20 -35 0 -38
3 -47 70 -20 138 -51 250 -68 250 -18 0 -64 -55 -71 -84 -3 -14 -19 -39 -35
-57 l-29 -31 -31 23 c-42 31 -39 38 12 33 33 -4 37 -2 20 5 -22 10 -59 39
-100 79 -13 12 -26 22 -30 22 -3 0 -18 11 -35 25 -16 13 -47 30 -69 36 -22 7
-38 17 -36 23 5 13 51 9 55 -4 6 -15 39 -12 46 5 3 8 -1 18 -8 22 -17 11 -35
56 -50 130 -3 16 -54 73 -65 73 -20 0 -97 75 -107 105 -17 46 -9 114 22 187
14 34 28 72 30 83 2 11 11 40 19 65 l15 45 -6 -60 c-4 -33 -11 -66 -17 -73
-18 -23 -11 -129 13 -187 6 -16 12 -40 12 -53 0 -12 4 -25 9 -28 5 -3 9 -16 9
-30 0 -13 4 -24 9 -24 5 0 11 -9 14 -20 6 -25 27 -26 28 -2 3 40 5 45 15 49 6
2 16 -16 23 -42 6 -25 16 -45 21 -45 12 0 13 -3 -4 56 -18 66 -18 85 3 112
l17 23 32 -50 c29 -44 33 -59 37 -143 5 -97 11 -128 24 -128 4 0 6 21 4 48 -4
44 -3 46 11 27 13 -17 15 -18 16 -3 0 9 -4 19 -9 22 -4 3 -11 31 -15 62 -4 38
-16 70 -37 100 -41 60 -19 55 44 -10 28 -30 66 -61 84 -70 50 -25 53 -19 4 9
-47 27 -66 46 -81 82 -5 13 -30 32 -54 44 -46 21 -59 47 -54 104 1 11 -2 35
-7 54 -7 34 -7 34 11 16 11 -10 19 -24 19 -30 0 -17 38 -85 47 -85 5 0 -1 18
-12 41 -12 23 -19 43 -17 46 9 8 49 -18 75 -49 13 -16 38 -36 56 -45 29 -15
30 -15 17 1 -8 10 -27 24 -42 32 -15 7 -30 22 -33 32 -4 10 -24 26 -45 35 -22
10 -55 36 -75 57 -30 33 -36 48 -36 83 l0 42 21 -32 c20 -31 93 -82 171 -117
20 -10 38 -27 41 -38 4 -13 11 -19 20 -15 20 7 29 -41 17 -84 l-10 -33 33 32
c18 18 38 32 45 32 14 0 42 51 42 77 0 25 18 3 22 -27 2 -14 10 -36 18 -50 12
-23 12 -24 -3 -11 -10 8 -24 10 -34 6 -10 -5 -23 -7 -30 -6 -6 1 -14 -3 -18
-9 -3 -5 3 -10 14 -10 12 0 21 -4 21 -9 0 -14 42 -21 62 -10 18 10 19 9 3 -14
-9 -14 -13 -32 -8 -43 9 -25 53 -73 78 -86 l20 -11 -20 23 -20 24 25 -17 c13
-9 34 -17 46 -17 19 0 20 5 18 53 -4 64 -18 92 -54 107 -22 9 -26 16 -23 43
l4 32 -14 -24 -15 -25 -16 31 c-8 17 -20 33 -26 35 -6 2 -13 16 -15 31 -3 15
-16 52 -30 82 -25 57 -24 66 5 40 17 -15 39 -19 93 -16 20 1 27 6 27 21 0 24
-51 77 -86 90 -29 12 -77 -7 -70 -27 3 -7 1 -13 -3 -13 -14 0 -21 28 -9 32 7
3 6 12 -5 29 -9 13 -19 47 -22 74 -9 67 -15 106 -21 130 -4 20 -4 20 8 1 20
-30 131 -136 142 -136 6 0 -6 -10 -26 -22 -21 -12 -38 -25 -38 -28 0 -13 65 3
78 19 11 14 11 14 6 -2 -9 -25 14 -64 51 -87 26 -16 38 -18 68 -9 l36 10 -31
45 c-17 25 -45 55 -62 65 l-31 19 30 1 30 1 -32 10 c-20 7 -33 18 -33 27 0 10
-4 21 -10 27 -5 5 -11 18 -13 29 -7 38 -18 53 -45 64 -43 16 -68 17 -86 2 -14
-12 -18 -11 -31 5 -25 35 -13 56 46 75 48 16 56 16 70 3 13 -12 18 -12 21 -2
3 8 11 4 24 -12 42 -54 114 -116 138 -118 l26 -2 -22 58 c-11 31 -26 63 -32
71 -9 12 -7 13 11 9 20 -5 21 -4 10 16 -7 11 -27 40 -44 63 -18 23 -33 44 -33
47 0 3 21 6 47 6 58 0 107 31 121 77 6 20 6 35 1 39 -5 3 -7 9 -4 14 10 16
-18 60 -38 60 -12 0 -30 9 -42 20 -12 11 -33 23 -46 25 -38 7 -79 27 -79 37 0
27 -113 124 -131 112 -4 -2 -19 2 -34 10 -25 13 -26 15 -9 24 20 10 113 -13
125 -31 4 -5 11 -7 17 -3 6 3 13 2 16 -2 3 -5 24 -9 48 -10 75 -3 92 -11 142
-63 28 -28 70 -62 95 -76 25 -15 55 -34 66 -43 24 -21 80 -50 95 -50 8 0 10
13 5 43 -4 23 -8 53 -11 67 -3 25 -46 170 -58 201 -6 13 0 15 36 12 24 -1 72
-12 108 -24z m-1388 -3 c16 -12 15 -15 -13 -40 -51 -46 -76 -138 -32 -122 8 3
17 6 19 6 2 0 4 9 4 20 0 11 5 20 10 20 6 0 20 11 32 25 26 30 28 30 61 5 l26
-21 -96 -49 c-53 -27 -100 -47 -105 -44 -4 3 -8 16 -8 29 0 13 -10 32 -23 42
l-24 18 23 45 c16 32 33 49 61 62 47 20 44 20 65 4z m668 -36 c0 -5 -2 -10 -4
-10 -3 0 -8 5 -11 10 -3 6 -1 10 4 10 6 0 11 -4 11 -10z m872 -12 c-9 -9 -15
-9 -24 0 -9 9 -7 12 12 12 19 0 21 -3 12 -12z m-1314 -107 c2 -46 16 -59 44
-42 12 7 34 14 49 15 28 2 28 1 11 -18 -40 -46 -50 -53 -62 -46 -16 10 -92 2
-104 -11 -6 -5 -16 -9 -23 -9 -11 0 -11 4 -2 21 11 21 10 22 -22 15 -18 -3
-45 -18 -59 -31 -14 -14 -30 -25 -36 -25 -5 0 -17 -12 -27 -27 l-18 -28 6 41
c5 32 2 46 -14 65 l-20 24 96 45 c67 32 108 45 138 45 41 0 42 -1 43 -34z
m1192 -45 c0 -2 -7 -6 -15 -10 -8 -3 -15 -1 -15 4 0 6 7 10 15 10 8 0 15 -2
15 -4z m202 -25 c-10 -18 -22 -27 -31 -23 -11 4 -7 11 15 29 16 12 30 23 31
23 1 0 -5 -13 -15 -29z m-1730 -76 c-4 -53 -5 -54 -24 -41 -11 8 -26 12 -34 9
-7 -2 -20 -1 -29 5 -14 7 -8 15 37 45 29 20 53 36 53 37 0 0 -2 -25 -3 -55z
m2811 35 c3 -11 1 -20 -4 -20 -5 0 -9 9 -9 20 0 11 2 20 4 20 2 0 6 -9 9 -20z
m-2553 -60 c0 -23 35 -64 62 -73 9 -3 30 5 49 19 18 13 37 24 42 24 5 0 27
-18 48 -40 22 -22 47 -40 58 -40 10 0 25 -7 32 -16 11 -14 10 -19 -9 -35 -23
-18 -23 -18 -66 26 -45 47 -68 54 -100 30 -16 -12 -21 -12 -30 -1 -12 16 -68
32 -106 31 -15 0 -33 9 -43 22 -10 13 -23 21 -28 18 -5 -4 -9 -1 -9 4 0 14 17
14 25 1 3 -5 17 -10 31 -10 20 0 24 5 24 30 0 17 5 30 10 30 6 0 10 -9 10 -20z
m1760 -140 c0 -5 -5 -10 -11 -10 -5 0 -7 5 -4 10 3 6 8 10 11 10 2 0 4 -4 4
-10z m-1572 -50 l27 0 -35 -28 c-19 -15 -41 -35 -49 -44 -21 -25 -36 -22 -56
8 -17 26 -16 27 8 50 18 17 24 30 19 46 -5 22 -5 22 27 -5 18 -15 45 -27 59
-27z m2194 -12 c-7 -7 -12 -8 -12 -2 0 14 12 26 19 19 2 -3 -1 -11 -7 -17z
m190 -12 c19 12 6 -36 -14 -50 -21 -15 -24 -14 -48 12 -23 23 -24 29 -12 44
12 14 17 14 39 3 15 -8 30 -12 35 -9z m-2337 -51 c-20 -47 -66 -223 -68 -262
0 -7 -4 -13 -8 -13 -5 0 -23 -13 -41 -29 -24 -20 -47 -30 -84 -34 -99 -10
-147 -56 -184 -176 -28 -88 -27 -92 13 -78 36 13 44 19 96 64 20 18 48 42 63
53 15 12 33 39 39 61 8 24 25 49 46 65 18 14 33 24 33 22 0 -2 -11 -37 -24
-78 -13 -41 -27 -90 -31 -107 -5 -28 -13 -34 -48 -45 -23 -6 -47 -16 -54 -21
-7 -5 -17 -6 -23 -2 -6 4 -23 -1 -38 -11 -15 -10 -36 -18 -47 -19 -11 0 -39
-10 -62 -22 l-41 -22 -6 25 c-4 13 -2 33 4 45 6 11 8 29 5 39 -7 22 20 29 28
8 2 -7 8 -10 12 -6 5 5 0 17 -10 27 -17 19 -16 21 4 47 25 31 27 64 6 103 -13
27 -13 30 9 52 13 13 36 53 51 89 30 69 57 111 32 48 -9 -20 -14 -45 -13 -55
4 -22 -20 -73 -34 -73 -6 0 -10 -4 -10 -10 0 -5 6 -10 14 -10 19 0 196 118
203 136 4 11 9 12 19 3 13 -11 18 -5 15 15 -1 5 5 16 13 25 25 28 55 88 61
125 5 25 16 41 39 55 46 29 48 26 21 -34z m104 -76 c23 -36 36 -73 42 -118 5
-35 11 -66 13 -68 2 -2 16 20 31 49 15 29 38 63 51 75 13 12 25 29 25 38 1 8
3 20 4 25 1 6 3 18 4 27 2 27 14 6 16 -29 1 -18 5 -56 9 -83 7 -49 7 -51 -19
-53 -54 -4 -106 -44 -110 -85 -4 -35 -4 -35 -23 -41 -11 -4 -35 1 -55 9 -21 8
-37 13 -37 9 0 -20 -70 68 -78 99 -13 45 9 148 45 221 l25 50 13 -36 c6 -20
26 -59 44 -89z m-469 71 c-17 -22 -34 -40 -37 -40 -2 0 10 18 27 40 17 22 34
40 37 40 2 0 -10 -18 -27 -40z m82 -12 c-16 -29 -40 -71 -54 -93 -14 -22 -28
-50 -32 -62 -4 -11 -18 -28 -31 -37 -41 -27 -36 -17 46 105 20 30 47 73 60 96
13 24 27 43 32 43 4 0 -5 -24 -21 -52z m88 45 c0 -5 -7 -16 -15 -26 -13 -18
-14 -18 -24 2 -15 28 -14 31 14 31 14 0 25 -3 25 -7z m-20 -72 c0 -11 -4 -22
-9 -25 -5 -3 -8 6 -8 19 0 14 3 25 8 25 5 0 9 -9 9 -19z m-120 5 c0 -2 -8 -10
-17 -17 -16 -13 -17 -12 -4 4 13 16 21 21 21 13z m816 -144 c-3 -6 -16 -8 -27
-5 -21 6 -21 7 -4 20 20 14 42 3 31 -15z m-942 -51 c-9 -22 -21 -41 -26 -41
-5 0 -8 3 -6 8 41 85 62 106 32 33z m50 -31 c-15 -22 -29 -40 -31 -40 -8 0 10
45 25 63 28 32 32 17 6 -23z m400 -155 c3 -33 16 -89 29 -125 24 -67 28 -153
7 -174 -17 -17 -21 0 -11 44 8 38 6 50 -15 91 -13 26 -32 52 -41 58 -15 8 -18
25 -20 95 -1 48 2 88 8 92 6 3 6 10 1 17 -6 8 -6 21 0 37 10 24 11 22 24 -25
7 -27 15 -77 18 -110z m362 13 c13 -39 23 -72 21 -72 -77 -35 -83 -40 -78 -68
0 -5 -3 -8 -8 -8 -5 0 -13 15 -17 33 -8 37 -48 99 -93 143 l-32 31 58 2 c39 1
66 8 83 20 30 22 31 21 66 -81z m-326 44 c0 -15 -2 -15 -10 -2 -13 20 -13 33
0 25 6 -3 10 -14 10 -23z m550 8 c0 -5 -7 -7 -15 -4 -8 4 -15 8 -15 10 0 2 7
4 15 4 8 0 15 -4 15 -10z m-1103 -120 c25 -19 25 -20 4 -20 -13 0 -28 -12 -40
-30 -10 -16 -21 -27 -24 -23 -4 3 -7 1 -7 -5 0 -7 7 -12 15 -12 8 0 15 5 15
10 0 7 6 7 19 1 15 -8 21 -7 27 7 5 13 9 9 14 -18 4 -19 10 -46 15 -60 7 -23
5 -22 -28 10 -22 21 -47 36 -64 37 -15 1 -41 5 -57 9 l-30 7 22 -23 c12 -13
22 -29 22 -36 0 -7 3 -20 6 -29 4 -10 2 -15 -7 -13 -7 2 -14 -4 -15 -12 0 -8
-2 -22 -2 -31 -1 -9 -11 -27 -23 -40 -44 -50 -90 -128 -94 -159 -6 -46 -13
-48 -30 -6 -21 50 -2 119 48 173 11 12 21 36 22 52 2 16 12 42 24 57 12 15 19
29 16 32 -9 10 -44 -44 -51 -78 -7 -34 -32 -79 -45 -80 -4 0 -5 20 -4 45 1 25
-2 45 -6 45 -12 0 -15 -41 -7 -80 5 -26 3 -39 -9 -50 -14 -13 -15 -13 -11 0 3
8 -5 36 -18 62 -31 61 -30 74 6 127 16 24 27 47 24 52 -5 9 14 89 22 89 2 0
15 -7 29 -16 33 -22 94 -20 146 4 54 26 46 26 76 2z m-513 -96 c-1 -15 1 -37
6 -50 6 -15 5 -24 -3 -28 -9 -3 -9 -7 1 -13 13 -10 15 -16 27 -98 9 -62 38
-120 70 -141 14 -9 25 -22 25 -29 0 -6 9 -20 20 -30 11 -10 20 -22 20 -28 0
-5 -52 43 -115 108 -63 64 -113 121 -109 126 3 5 0 16 -6 24 -20 24 4 125 40
167 20 25 28 22 24 -8z m857 -21 c-5 -10 -11 -31 -15 -48 -10 -55 -18 -75 -32
-75 -7 0 -18 -9 -24 -21 -7 -11 -14 -18 -17 -15 -3 3 0 12 7 21 7 9 10 18 7
21 -13 13 -55 -72 -53 -108 1 -31 -2 -37 -15 -33 -9 3 -22 -1 -29 -10 -7 -8
-16 -12 -21 -9 -5 3 -9 1 -9 -4 0 -5 14 -9 31 -10 17 0 32 -2 33 -4 1 -2 -14
-36 -34 -76 l-36 -73 -23 70 c-26 81 -22 136 9 128 32 -8 76 53 83 116 5 41
53 102 101 129 40 22 49 22 37 1z m-710 -70 c30 -38 48 -81 54 -134 10 -81 12
-90 34 -144 10 -28 24 -75 29 -105 9 -49 8 -53 -4 -35 -43 59 -70 106 -90 154
-19 47 -21 59 -10 80 21 43 13 114 -17 153 -15 19 -27 38 -27 41 0 13 17 7 31
-10z m367 -51 l29 4 -18 -30 c-11 -17 -19 -43 -19 -58 0 -27 4 -30 44 -32 14
-1 20 -9 22 -33 2 -30 1 -31 -26 -23 -19 6 -37 3 -57 -7 -15 -8 -37 -17 -47
-19 -25 -5 -46 -24 -26 -24 7 0 25 -14 40 -31 21 -26 33 -32 66 -31 59 0 84 5
85 17 0 5 13 -28 29 -75 27 -82 30 -116 8 -75 -17 29 -59 65 -69 59 -5 -3 -22
5 -38 18 -58 46 -75 58 -79 53 -2 -2 4 -28 14 -57 18 -54 27 -268 12 -268 -20
0 -157 151 -168 185 -19 57 -5 121 35 159 18 17 40 43 50 58 37 59 52 178 30
232 -7 17 -5 17 23 -4 21 -15 40 -21 60 -18z m2890 -7 c27 -5 70 -28 112 -60
l35 -27 -56 6 c-70 7 -96 17 -138 51 -24 21 -29 30 -19 36 7 5 21 6 30 3 9 -3
25 -7 36 -9z m-147 -107 c30 -34 72 -82 93 -105 21 -24 36 -46 32 -50 -3 -3
-6 -2 -6 4 0 6 -11 14 -24 17 -50 12 -202 196 -162 196 7 0 38 -28 67 -62z
m96 37 c16 -8 85 -69 153 -135 115 -111 122 -120 95 -120 -25 0 -51 22 -160
135 -71 75 -127 135 -124 135 3 0 19 -7 36 -15z m-2471 -79 c1 -6 7 -30 13
-53 9 -35 9 -48 -2 -70 l-14 -26 -16 49 c-9 27 -19 78 -22 114 l-5 65 22 -34
c12 -19 23 -40 24 -45z m-276 44 c0 -5 -4 -10 -10 -10 -5 0 -10 5 -10 10 0 6
5 10 10 10 6 0 10 -4 10 -10z m2873 -154 c32 -27 55 -51 53 -53 -3 -3 -18 -2
-34 2 -38 8 -103 72 -161 156 l-44 64 64 -60 c35 -33 90 -82 122 -109z m-2663
119 c-7 -9 -15 -13 -17 -11 -7 7 7 26 19 26 6 0 6 -6 -2 -15z m46 -182 c8 -43
-2 -84 -20 -77 -8 3 -16 -3 -19 -15 -3 -13 -13 -21 -25 -21 -19 0 -19 2 -6 47
19 63 20 128 3 149 -12 15 -12 17 0 9 11 -6 13 -2 7 19 -4 17 -2 34 5 43 10
12 16 2 31 -54 10 -37 21 -82 24 -100z m-572 71 c3 -8 2 -12 -4 -9 -6 3 -10
10 -10 16 0 14 7 11 14 -7z m3 -46 c-3 -8 -6 -5 -6 6 -1 11 2 17 5 13 3 -3 4
-12 1 -19z m1603 -39 c0 -5 -4 -9 -10 -9 -5 0 -10 7 -10 16 0 8 5 12 10 9 6
-3 10 -10 10 -16z m1679 -81 c1 -4 -8 -6 -19 -5 -10 1 -17 3 -15 5 2 2 -9 18
-25 36 -17 17 -30 35 -30 40 0 10 88 -65 89 -76z m-2534 -25 c14 -10 16 -13 5
-14 -38 -3 -75 15 -65 32 6 9 30 2 60 -18z m2600 -13 l30 -20 -52 0 c-51 0
-70 10 -58 30 10 16 48 11 80 -10z m74 5 c14 -2 29 -10 35 -16 8 -9 5 -10 -14
-5 -14 3 -32 6 -41 6 -8 0 -24 7 -35 15 -21 15 -20 15 55 0z m-1659 1 c0 -2
-7 -19 -15 -37 l-14 -34 -1 38 c0 26 4 37 15 37 8 0 15 -2 15 -4z m1464 -12
c4 -10 1 -14 -6 -12 -15 5 -23 28 -10 28 5 0 13 -7 16 -16z m-2519 -14 c-3 -5
-12 -7 -20 -3 -21 7 -19 13 6 13 11 0 18 -4 14 -10z m875 -111 c0 -5 -4 -9
-10 -9 -13 0 -38 -39 -44 -70 -3 -14 -8 -36 -12 -49 -5 -18 -4 -22 6 -16 6 4
30 8 53 9 31 2 45 9 64 32 13 16 26 40 29 54 l6 26 79 -27 c98 -33 106 -40 46
-38 -32 2 -53 -3 -66 -15 -10 -9 -28 -18 -39 -21 -11 -2 -29 -8 -39 -13 -10
-5 -26 -8 -35 -7 -10 2 -20 0 -23 -5 -4 -7 5 -12 88 -42 17 -6 57 -34 87 -61
30 -27 64 -54 77 -60 34 -15 29 -22 -28 -35 -73 -17 -182 -15 -221 4 -44 20
-79 75 -84 131 -2 24 -10 59 -18 76 -18 42 -92 120 -136 143 l-35 19 27 3 c17
2 38 16 53 37 l26 33 74 -45 c41 -25 75 -49 75 -54z m-1909 40 l24 -18 -35 10
c-19 6 -44 22 -54 37 l-19 25 30 -18 c16 -9 40 -26 54 -36z m3881 36 c32 -7
77 -34 78 -46 0 -3 -30 0 -67 7 -38 7 -95 16 -128 20 -127 15 -127 15 -55 24
63 7 124 5 172 -5z m-1992 -20 c11 -13 10 -14 -4 -9 -9 3 -16 10 -16 15 0 13
6 11 20 -6z m1863 -30 c207 -11 231 -15 252 -36 l20 -20 -80 6 c-44 3 -93 7
-110 9 -16 2 -59 7 -95 11 -36 4 -77 13 -92 21 -30 15 -39 30 -13 20 9 -3 61
-8 118 -11z m-3888 -5 c7 -12 71 -56 114 -79 17 -9 21 -16 12 -19 -7 -2 -26 5
-42 17 -15 11 -33 21 -38 21 -13 0 -71 50 -71 61 0 12 17 11 25 -1z m90 -22
l30 -31 -33 19 c-41 23 -60 44 -41 44 8 0 28 -15 44 -32z m90 -4 c11 -8 31
-21 45 -30 123 -82 159 -108 156 -111 -2 -2 -37 16 -77 40 -41 24 -95 56 -120
70 -25 14 -52 34 -60 43 -13 15 -12 16 11 9 14 -4 34 -13 45 -21z m1210 -14
c18 -20 18 -21 -5 -12 -13 5 -26 14 -28 20 -6 19 13 14 33 -8z m2440 -21 c17
-9 43 -31 59 -48 26 -27 27 -31 10 -31 -50 1 -170 62 -177 91 -5 17 -1 18 36
13 23 -4 56 -15 72 -25z m-3445 -16 c0 -7 11 -24 25 -37 18 -16 21 -25 13 -29
-26 -9 -33 -7 -34 13 -1 10 -9 31 -18 44 -20 31 -20 37 -1 30 8 -4 15 -13 15
-21z m177 -6 l53 -10 -30 -18 c-16 -10 -32 -30 -36 -44 -3 -14 -13 -25 -21
-25 -8 0 -11 5 -7 11 8 14 -14 29 -43 29 -20 0 -22 4 -19 38 3 20 5 39 5 41 1
2 11 0 24 -4 12 -4 46 -12 74 -18z m816 12 c20 -5 37 -13 37 -18 0 -8 -31
-115 -34 -119 -5 -5 -81 30 -103 48 l-22 17 29 28 c16 15 29 31 28 34 -3 24 8
26 65 10z m-674 -33 c10 -12 9 -18 -6 -33 -31 -32 -53 -71 -53 -98 0 -27 -2
-28 -75 -29 -49 -1 -50 -2 -63 -41 -9 -29 -10 -46 -3 -62 7 -15 7 -23 1 -23
-6 0 -15 11 -20 25 -11 30 -40 33 -58 5 -7 -11 -18 -20 -25 -20 -7 0 -8 3 -2
8 6 4 16 19 23 35 6 15 22 31 35 36 13 5 38 26 56 47 25 27 42 38 64 38 24 1
34 8 48 36 10 19 20 46 23 60 2 14 5 26 5 28 3 8 41 -1 50 -12z m-629 -54 c52
-37 100 -58 100 -44 0 4 -26 24 -57 45 -43 28 -51 37 -34 37 13 0 37 -10 53
-22 17 -11 65 -36 106 -54 58 -25 79 -30 89 -22 11 9 8 18 -19 46 l-33 36 41
-31 c36 -28 40 -35 36 -67 -5 -41 -8 -43 -35 -19 -12 12 -37 18 -73 19 -52 1
-92 14 -45 14 12 0 20 4 16 10 -3 5 -15 6 -28 1 -36 -14 -88 -3 -156 31 -72
37 -88 58 -45 58 16 0 52 -16 84 -38z m1688 -105 c32 -19 82 -42 112 -51 30
-9 75 -28 100 -41 l45 -25 -75 5 c-84 5 -180 30 -180 47 0 5 -19 28 -41 49
-37 35 -56 44 -81 40 -5 0 -8 5 -8 13 0 22 62 4 128 -37z m-498 -25 c0 -8 -8
-12 -17 -10 -17 3 -36 61 -25 73 7 7 42 -46 42 -63z m1630 58 c0 -5 -5 -10
-11 -10 -5 0 -7 5 -4 10 3 6 8 10 11 10 2 0 4 -4 4 -10z m-2520 -60 c0 -5 6
-10 14 -10 30 0 21 -26 -16 -48 -27 -17 -38 -30 -38 -47 0 -25 31 -50 45 -37
5 4 5 1 1 -5 -4 -7 -4 -13 1 -14 4 0 26 -3 48 -6 46 -6 106 -5 114 2 2 3 -4
12 -15 20 -12 9 -14 15 -6 16 6 1 21 3 32 4 11 1 28 3 39 4 10 0 30 13 45 27
14 15 26 22 26 15 0 -6 9 -11 19 -11 11 0 23 -5 26 -11 4 -6 14 -8 24 -5 9 3
5 -2 -7 -11 -13 -9 -38 -17 -55 -17 -34 -1 -36 -8 -22 -66 8 -37 -46 -58 -155
-60 -125 -3 -121 -4 -111 24 7 17 5 31 -8 52 -41 66 -86 85 -134 55 l-34 -21
-22 31 c-14 18 -28 28 -37 25 -11 -4 -12 -2 -5 13 17 31 42 46 85 47 22 1 53
2 69 3 15 0 35 10 44 21 19 22 33 26 33 10z m840 -21 c0 -5 -4 -9 -10 -9 -5 0
-10 7 -10 16 0 8 5 12 10 9 6 -3 10 -10 10 -16z m-10 -26 c0 -16 -18 -35 -43
-48 -38 -20 -47 2 -13 32 26 22 56 31 56 16z m1229 -27 c6 -8 11 -18 9 -22 -5
-20 14 -73 33 -90 27 -25 24 -49 -11 -74 -16 -12 -30 -29 -30 -39 0 -23 42
-86 58 -87 22 -3 23 -4 16 -15 -4 -7 -9 -8 -17 0 -7 7 -16 7 -29 0 -14 -7 -17
-18 -14 -45 3 -20 1 -32 -5 -28 -5 3 -7 10 -4 15 4 5 -1 17 -10 26 -13 12 -15
27 -10 62 3 25 1 61 -4 79 -9 28 -7 37 9 55 24 25 20 46 -21 104 -27 38 -28
43 -13 57 19 20 28 20 43 2z m-115 -45 c-23 -22 -41 -30 -85 -34 -30 -3 -73
-13 -95 -23 -21 -9 -48 -16 -58 -15 -13 2 -17 -2 -13 -12 4 -10 -4 -22 -20
-33 -38 -24 -163 -150 -163 -163 0 -15 6 -14 33 3 13 9 46 14 82 14 l60 -1
-45 -13 c-25 -8 -57 -15 -72 -16 -16 -1 -28 -5 -28 -9 0 -16 -35 -18 -56 -4
-13 8 -32 15 -43 15 -24 0 -36 16 -20 26 8 5 9 3 4 -6 -5 -9 -4 -11 4 -6 6 4
9 11 6 16 -6 10 24 50 38 50 4 0 5 -4 2 -10 -3 -5 -2 -10 4 -10 6 0 8 -12 4
-32 -4 -22 -3 -29 5 -24 7 4 12 27 12 50 0 25 11 68 25 100 14 32 23 61 21 65
-3 4 8 15 24 25 17 9 35 26 40 37 10 17 23 19 133 20 67 1 136 5 152 9 17 4
41 8 54 9 23 1 23 1 -5 -28z m-445 3 c2 -2 -14 -4 -37 -4 -22 0 -44 5 -47 10
-6 10 73 3 84 -6z m41 -34 c-41 -34 -80 -38 -97 -10 -12 17 -9 20 25 25 110
18 112 18 72 -15z m1107 8 c-3 -8 -6 -5 -6 6 -1 11 2 17 5 13 3 -3 4 -12 1
-19z m-672 -15 c-1 -16 3 -43 11 -60 7 -18 9 -35 4 -38 -4 -3 -10 1 -13 7 -3
9 -13 6 -36 -10 l-31 -23 -25 28 -25 28 27 20 c15 11 40 32 57 47 17 15 32 28
33 28 1 0 0 -12 -2 -27z m-2072 -48 l26 -45 -22 0 c-12 0 -38 3 -58 6 -29 5
-36 10 -32 24 3 12 11 16 23 13 14 -4 21 2 26 21 3 14 8 26 9 26 2 0 15 -20
28 -45z m2879 4 c25 2 28 -1 28 -27 0 -40 -22 -58 -40 -33 -7 11 -19 17 -27
14 -9 -4 -13 4 -13 27 0 22 4 29 12 23 7 -4 25 -6 40 -4z m-485 -39 c-2 -10
-11 -28 -20 -38 -27 -29 -20 -48 21 -61 l38 -13 -10 -43 c-10 -39 -23 -62 -66
-116 -8 -10 -26 -34 -40 -53 l-25 -34 -23 25 c-18 20 -30 24 -58 21 -34 -4
-44 14 -11 20 19 4 107 88 107 102 0 22 -2 25 -16 22 -8 -2 -14 4 -14 13 0 8
4 15 8 15 14 0 39 64 35 91 -3 21 4 29 34 46 21 12 39 22 40 22 2 1 2 -8 0
-19z m-2116 -50 c2 -9 -24 -60 -30 -60 -16 1 -83 28 -93 38 -19 19 -47 15 -43
-5 2 -10 4 -21 4 -25 1 -11 59 -49 81 -53 11 -2 26 -8 35 -12 23 -13 -3 -41
-40 -44 -54 -4 -70 1 -97 26 -15 14 -33 25 -40 25 -9 0 -10 3 -2 8 18 12 25
47 15 75 -5 14 -8 27 -5 29 6 6 214 4 215 -2z m1694 -10 c21 8 25 7 25 -10 0
-22 -19 -37 -29 -22 -4 6 -26 14 -50 18 -26 4 -38 10 -30 15 7 4 23 3 36 -2
14 -5 33 -5 48 1z m-1225 -35 c-7 -9 -15 -13 -19 -10 -3 3 1 10 9 15 21 14 24
12 10 -5z m1245 -25 c-3 -5 -14 -10 -24 -10 -9 0 -21 -4 -26 -9 -15 -14 -55
-23 -55 -13 0 4 21 16 48 24 58 20 65 21 57 8z m-121 -38 c5 -8 -113 -59 -157
-67 l-21 -5 20 20 c11 12 33 23 48 26 15 2 42 11 59 19 39 16 44 17 51 7z
m126 -1 c0 -12 -30 -22 -43 -14 -7 4 -3 9 9 14 26 10 34 10 34 0z m670 -17 c0
-3 -7 -12 -15 -20 -16 -17 -18 -14 -9 10 6 15 24 23 24 10z m-605 -20 c11 -1
27 2 36 7 26 13 40 -3 30 -39 -11 -38 -4 -72 15 -72 8 0 14 -4 14 -10 0 -5 -5
-10 -11 -10 -6 0 -17 -7 -26 -16 -14 -14 -18 -26 -22 -75 -1 -15 -7 -16 -53
-5 -64 14 -65 25 -7 108 39 56 47 78 29 78 -5 0 -7 7 -4 15 7 17 -11 21 -21 5
-3 -5 -15 -10 -26 -10 -17 0 -18 3 -9 20 7 12 16 18 23 13 6 -4 21 -8 32 -9z
m-1595 -4 c12 -8 11 -10 -7 -10 -13 0 -23 5 -23 10 0 13 11 13 30 0z m1221
-10 c-13 -11 -37 -20 -55 -19 -30 0 -30 1 14 19 58 24 71 24 41 0z m-931 0 c0
-6 9 -20 20 -32 l20 -21 -31 -19 c-33 -20 -49 -17 -44 10 1 9 -2 22 -7 28 -5
8 -3 18 7 28 19 18 35 21 35 6z m1199 6 c-2 -2 -15 -9 -29 -15 -24 -11 -24
-11 -6 3 16 13 49 24 35 12z m494 -78 c4 -11 0 -19 -14 -23 -11 -4 -29 -16
-39 -28 -11 -11 -20 -18 -20 -14 0 4 -9 3 -20 -3 -25 -13 -26 -40 -2 -41 41
-3 64 4 100 29 25 18 36 21 46 12 33 -27 -21 -98 -88 -115 -46 -12 -48 -12
-57 12 -5 13 -22 29 -39 34 -37 13 -37 19 -5 53 14 15 44 52 67 82 43 57 51
57 71 2z m-509 29 c-7 -18 -44 -40 -44 -26 0 12 29 38 42 39 4 0 5 -6 2 -13z
m-224 -5 c0 -4 -18 -13 -40 -19 -30 -8 -40 -7 -37 1 2 6 19 14 38 17 19 4 35
7 37 8 1 0 2 -3 2 -7z m-126 -43 c-9 -15 -34 3 -34 24 0 19 1 19 20 2 11 -10
17 -21 14 -26z m196 37 c0 -2 -8 -10 -17 -17 -16 -13 -17 -12 -4 4 13 16 21
21 21 13z m818 -29 c2 -47 19 -87 36 -87 11 0 13 -8 9 -34 -7 -44 10 -94 54
-158 34 -48 35 -54 26 -95 -6 -24 -9 -64 -8 -88 1 -25 -1 -45 -4 -45 -3 0 -26
18 -50 40 -25 22 -47 37 -49 35 -3 -3 20 -28 51 -56 54 -49 66 -72 72 -139 0
-8 20 -51 43 -95 29 -57 34 -71 17 -50 -14 17 -25 36 -25 43 0 6 -5 11 -11 10
-16 -4 -47 53 -41 75 4 17 -12 24 -22 9 -7 -11 -18 -154 -17 -212 0 -24 -4
-47 -10 -51 -8 -4 -6 -14 4 -30 9 -13 17 -28 17 -34 3 -20 43 -105 50 -105 14
0 27 -46 23 -77 -3 -18 -8 -33 -12 -33 -4 0 -19 24 -33 53 -14 28 -46 75 -70
103 -89 104 -92 110 -89 170 2 42 10 66 31 97 25 36 28 50 26 102 -2 62 -21
102 -87 186 -15 19 -31 47 -34 61 -6 23 -4 25 18 21 38 -7 42 23 11 81 -14 28
-28 60 -30 71 -3 18 33 145 41 145 2 0 2 -24 0 -52 -5 -55 11 -118 30 -118 33
0 42 109 11 134 -18 14 -22 41 -12 91 6 33 21 65 31 65 1 0 2 -15 3 -33z
m-718 16 c-1 -19 -19 -35 -35 -31 -18 3 -18 4 -1 21 18 18 36 23 36 10z m-160
-18 c0 -12 -64 -36 -78 -30 -14 5 -11 9 12 19 30 12 66 18 66 11z m100 -14 c0
-5 -8 -11 -18 -13 -11 -3 -19 0 -19 8 0 8 9 14 19 14 10 0 18 -4 18 -9z m701
-14 c-10 -9 -11 -8 -5 6 3 10 9 15 12 12 3 -3 0 -11 -7 -18z m-898 -16 c-2 -6
5 -11 15 -12 11 -1 8 -4 -8 -8 -27 -8 -41 4 -33 26 6 16 29 11 26 -6z m85 7
c-3 -7 -15 -14 -29 -16 -24 -4 -24 -3 -4 12 24 19 38 20 33 4z m162 -4 c0 -8
-5 -12 -10 -9 -6 4 -8 11 -5 16 9 14 15 11 15 -7z m67 -8 c-3 -8 5 -35 17 -59
16 -29 21 -49 15 -59 -6 -11 -2 -21 11 -33 11 -10 20 -23 20 -28 0 -6 8 -19
17 -29 16 -17 16 -20 -2 -36 -10 -9 -15 -12 -11 -6 6 11 -39 56 -80 80 -15 9
-19 22 -18 60 1 47 20 124 31 124 3 0 3 -7 0 -14z m-92 -5 c3 -5 1 -12 -5 -16
-5 -3 -10 1 -10 9 0 18 6 21 15 7z m-85 -41 c0 -18 -18 -30 -46 -30 -16 0 -18
9 -4 30 9 13 11 13 21 0 9 -13 10 -13 6 2 -3 9 -3 19 0 22 10 9 23 -4 23 -24z
m-110 -12 c0 -19 -2 -20 -10 -8 -13 19 -13 30 0 30 6 0 10 -10 10 -22z m212
-8 c3 -16 3 -30 1 -30 -7 0 -21 45 -16 53 7 13 11 8 15 -23z m347 0 c23 -6 23
-7 -16 -38 -35 -28 -42 -30 -53 -17 -10 12 -10 15 0 15 7 0 10 7 6 15 -21 52
-27 49 63 25z m-710 -30 c10 0 25 -52 24 -82 0 -10 -1 -36 -2 -58 0 -22 -5
-40 -11 -40 -11 0 -55 138 -46 147 3 3 1 12 -5 19 -7 9 -7 19 2 35 l12 23 8
-22 c5 -12 13 -22 18 -22z m65 -3 c14 -21 26 -40 26 -43 0 -3 9 -17 20 -32 10
-15 22 -43 25 -62 l6 -35 -31 45 c-43 63 -62 100 -71 138 -8 39 -8 39 25 -11z
m242 1 c-3 -18 -5 -35 -7 -38 -1 -3 -1 -8 0 -12 0 -5 -6 -8 -14 -8 -22 0 -20
66 3 79 9 6 18 11 19 11 2 0 1 -15 -1 -32z m446 0 c-5 -13 -7 -29 -6 -35 1 -7
2 -19 3 -27 2 -26 67 -87 85 -80 9 3 14 9 12 13 -3 4 3 12 14 18 16 11 17 9 7
-22 -6 -21 -19 -37 -31 -41 -25 -8 -36 -22 -36 -48 0 -15 6 -17 29 -14 22 3
31 0 34 -13 3 -12 -2 -20 -14 -24 -11 -4 -32 -17 -48 -31 l-29 -24 -7 28 c-4
15 -9 38 -12 52 -2 13 -9 27 -14 31 -5 3 -11 16 -14 30 -2 13 -17 48 -32 76
l-28 53 40 39 c46 45 58 50 47 19z m-614 -33 c-3 -3 -13 7 -23 22 l-17 28 23
-22 c12 -12 20 -25 17 -28z m112 13 c0 -34 -13 -36 -28 -4 -12 26 -9 33 13 33
10 0 15 -10 15 -29z m110 -18 c5 -32 -1 -50 -14 -50 -19 0 -22 13 -18 61 4 36
6 38 17 22 7 -10 14 -25 15 -33z m-425 9 c9 -39 -1 -50 -15 -15 -12 34 -13 46
-1 46 5 0 12 -14 16 -31z m275 -14 c0 -17 -2 -17 -10 -5 -5 8 -10 24 -10 35 0
17 2 17 10 5 5 -8 10 -24 10 -35z m-280 -35 c12 -8 12 -10 1 -10 -20 0 -40 31
-40 60 0 22 2 22 12 -8 7 -18 19 -37 27 -42z m-50 6 c9 -34 16 -43 30 -39 14
4 18 -4 23 -38 3 -23 15 -55 26 -70 26 -35 26 -46 1 -54 -29 -9 -41 2 -35 34
3 19 -2 35 -14 50 -10 12 -22 37 -25 55 -4 19 -13 36 -20 39 -13 5 -21 -8 -40
-66 -3 -11 -11 -15 -17 -11 -7 4 -9 3 -5 -4 3 -6 2 -13 -4 -17 -6 -3 -11 4
-11 17 -1 13 -3 36 -5 51 -2 20 6 38 28 62 16 19 36 35 43 35 7 0 18 -20 25
-44z m1082 23 c-5 -11 -11 -20 -15 -20 -4 1 -11 1 -17 1 -5 0 -2 9 7 20 23 26
34 26 25 -1z m-874 -87 c31 -47 42 -92 21 -92 -5 0 -8 3 -6 8 2 4 -2 21 -9 37
-14 29 -14 29 -8 -16 5 -36 3 -47 -10 -52 -8 -3 -18 -2 -21 4 -4 5 -10 7 -14
4 -5 -2 -6 19 -3 48 2 29 5 64 5 80 0 15 3 27 6 27 3 0 21 -21 39 -48z m198
10 c1 -18 -2 -20 -12 -11 -17 14 -18 42 -1 37 6 -3 13 -14 13 -26z m-303 -44
c17 -29 23 -49 17 -53 -10 -6 -49 68 -50 94 0 17 0 17 33 -41z m360 32 c-3
-11 -9 -17 -14 -14 -14 8 -10 34 5 34 9 0 12 -7 9 -20z m-163 -54 c0 -25 -4
-19 -18 24 -11 32 -10 33 3 16 8 -11 15 -29 15 -40z m40 32 c0 -13 -23 -5 -28
10 -2 7 2 10 12 6 9 -3 16 -11 16 -16z m170 7 c10 -12 10 -15 -4 -15 -9 0 -16
7 -16 15 0 8 2 15 4 15 2 0 9 -7 16 -15z m190 -13 c14 -7 34 -30 46 -51 l21
-39 -47 24 c-27 13 -54 24 -62 24 -8 0 -20 6 -26 12 -10 10 -8 16 10 30 13 10
25 16 28 15 3 -1 16 -8 30 -15z m-140 -26 c0 -2 -7 -7 -16 -10 -8 -3 -12 -2
-9 4 6 10 25 14 25 6z m-50 -16 c0 -5 -5 -10 -11 -10 -5 0 -7 5 -4 10 3 6 8
10 11 10 2 0 4 -4 4 -10z m900 -52 c0 -5 7 -8 15 -8 9 0 19 -8 23 -18 4 -9 22
-44 41 -76 19 -33 35 -72 36 -88 2 -28 -10 -39 -18 -15 -2 6 -2 3 0 -8 10 -52
13 -79 7 -65 -11 27 -36 84 -50 114 -16 34 -18 56 -5 56 5 0 15 -16 22 -35 7
-19 17 -35 21 -35 9 0 -8 48 -24 67 -6 8 -18 11 -27 8 -11 -3 -23 5 -34 25
-10 17 -22 30 -27 30 -5 0 2 -18 14 -41 13 -22 21 -49 19 -60 -7 -25 -11 -24
-39 9 -20 22 -24 38 -24 87 0 33 3 71 7 84 l6 24 18 -24 c10 -13 19 -27 19
-31z m-694 10 c56 -24 124 -67 124 -78 0 -12 -71 6 -132 33 -31 14 -59 23 -62
19 -3 -3 -6 0 -6 6 0 6 -7 18 -16 26 -14 15 -13 16 14 16 16 0 51 -10 78 -22z
m-371 2 c3 -5 -1 -10 -9 -10 -8 0 -18 5 -21 10 -3 6 1 10 9 10 8 0 18 -4 21
-10z m512 -44 c15 -30 15 -31 -3 -15 -11 9 -32 24 -49 32 -20 11 -24 16 -12
17 9 0 17 5 17 11 0 18 29 -10 47 -45z m-307 34 c0 -5 -4 -10 -10 -10 -5 0
-10 5 -10 10 0 6 5 10 10 10 6 0 10 -4 10 -10z m452 -78 c-7 -2 -25 -14 -40
-26 -15 -13 -33 -21 -39 -19 -17 6 -16 23 1 23 8 0 27 16 42 35 28 33 29 33
39 13 7 -16 6 -23 -3 -26z m98 -12 c13 -24 2 -50 -11 -29 -9 15 -12 49 -4 49
2 0 9 -9 15 -20z m-513 -30 c21 -11 47 -20 58 -20 24 0 76 -62 66 -78 -5 -8
-16 -5 -39 8 -35 22 -52 25 -52 11 0 -5 19 -17 43 -26 54 -21 84 -46 92 -77 6
-24 6 -24 -53 -18 -58 5 -112 30 -112 51 0 18 -44 109 -52 109 -14 0 -8 -28 7
-34 8 -3 12 -12 9 -21 -4 -9 2 -25 12 -37 14 -16 9 -14 -21 7 -22 16 -44 32
-49 36 -5 4 1 20 13 35 11 15 21 37 21 50 0 29 9 30 57 4z m323 -19 c19 -15
44 -42 55 -60 11 -18 43 -67 70 -109 72 -109 73 -112 28 -67 -22 22 -43 50
-47 62 -11 35 -70 74 -173 113 -18 7 -33 17 -33 22 0 5 -6 8 -12 7 -18 -3
-108 24 -108 31 0 6 50 24 95 34 38 8 90 -5 125 -33z m88 -16 c-12 -27 -23
-31 -33 -14 -4 6 1 17 11 24 28 21 35 18 22 -10z m630 -103 c5 -33 5 -68 1
-78 -5 -14 -8 -15 -9 -4 -3 33 -9 51 -34 105 -21 46 -23 61 -15 83 l11 27 19
-37 c11 -21 23 -64 27 -96z m-525 23 c-2 -36 4 -60 20 -89 21 -36 37 -116 24
-116 -3 0 -24 28 -48 63 -23 34 -51 74 -62 89 -19 25 -19 28 -2 71 16 41 19
44 43 38 25 -7 27 -11 25 -56z m351 33 c22 -44 20 -59 -4 -23 -18 28 -26 55
-16 55 3 0 12 -14 20 -32z m-43 -32 c0 -6 2 -19 4 -30 6 -32 -13 -3 -29 44
l-15 45 20 -24 c10 -13 19 -28 20 -35z m190 -101 c6 -16 11 -39 10 -50 l-3
-20 17 20 c16 20 16 19 10 -5 -14 -51 -17 -102 -6 -113 6 -6 11 -20 10 -31 0
-12 -3 -15 -6 -8 -2 6 -19 12 -37 12 -26 0 -35 6 -45 26 -16 37 -6 42 13 7 8
-15 15 -22 16 -15 0 7 5 10 11 6 17 -10 2 107 -22 175 -23 68 -22 62 -19 86 2
20 22 -16 51 -90z m-130 -8 c13 -40 23 -76 25 -82 1 -5 12 -34 23 -64 12 -29
20 -56 17 -58 -4 -5 -56 104 -56 118 0 5 -11 34 -25 65 -25 57 -33 110 -15 99
5 -3 19 -38 31 -78z m-665 28 c33 -39 53 -46 131 -50 37 -1 64 -10 90 -27 48
-32 137 -118 130 -125 -7 -7 -102 37 -150 70 -21 14 -67 35 -103 47 -64 22
-125 67 -137 103 -10 27 5 20 39 -18z m-205 -6 c17 -9 42 -13 109 -18 9 -1 5
-6 -10 -14 -47 -24 -130 -2 -130 35 0 11 7 10 31 -3z m220 -64 c24 -19 53 -35
64 -35 14 0 16 -3 7 -12 -9 -9 -20 -9 -49 0 -56 18 -93 22 -93 11 0 -5 8 -9
18 -10 24 -1 65 -9 70 -13 9 -9 -45 -29 -84 -31 -38 -3 -116 -34 -86 -35 7 0
22 5 32 10 11 6 39 12 62 14 24 2 63 11 88 21 74 28 107 23 183 -29 74 -50 81
-60 14 -22 -54 31 -95 27 -195 -19 -53 -25 -86 -35 -104 -31 -20 4 -28 1 -28
-8 0 -12 -5 -12 -30 0 -16 9 -37 25 -45 37 -8 12 -15 19 -15 17 -8 -77 -3
-117 17 -147 17 -24 19 -33 8 -33 -7 0 -16 4 -20 9 -3 5 -20 13 -37 16 -28 7
-30 9 -15 20 9 6 14 15 11 18 -3 3 2 17 11 31 11 16 13 26 6 26 -6 0 -11 -4
-11 -10 0 -5 -11 -12 -25 -16 -14 -3 -32 -16 -40 -27 -27 -38 -16 -5 15 45 17
26 30 54 30 61 0 7 5 18 11 24 6 6 12 36 13 67 l1 56 40 -2 c22 0 54 6 70 15
43 23 57 21 106 -18z m995 -24 c21 -26 21 -26 2 -46 -27 -27 -38 -58 -31 -85
5 -21 4 -21 -17 -10 -22 12 -27 10 -56 -26 -36 -43 -53 -39 -57 12 -1 22 2 28
14 26 13 -2 34 39 44 88 8 41 20 66 38 81 20 17 23 17 32 2 6 -8 19 -27 31
-42z m-243 -21 c3 -11 1 -18 -4 -14 -5 3 -9 12 -9 20 0 20 7 17 13 -6z m-1796
-4 c2 -2 1 -20 -2 -40 -6 -29 -11 -35 -29 -32 -11 2 -20 7 -19 12 1 5 -4 19
-12 30 -10 16 -11 24 -2 33 10 10 53 8 64 -3z m2147 -13 c-1 -16 -3 -45 -3
-66 l-1 -38 -40 33 -40 33 25 9 c14 6 25 14 25 19 0 6 8 16 18 23 9 7 17 14
17 14 1 0 0 -12 -1 -27z m-424 -98 c16 10 21 -15 6 -30 -13 -14 -16 -13 -27 7
-7 12 -23 31 -36 41 -12 10 -23 23 -23 29 0 5 16 -4 36 -21 19 -17 39 -29 44
-26z m-304 -28 c32 -18 101 -103 130 -159 27 -54 27 -65 -3 -50 -10 6 -54 15
-98 21 -43 6 -91 19 -105 29 -33 22 -71 42 -80 42 -4 0 6 -27 21 -60 16 -32
26 -65 24 -73 -3 -7 8 -32 25 -55 22 -31 26 -42 15 -42 -8 0 -15 4 -15 9 0 5
-24 21 -52 36 -70 36 -72 39 -55 66 34 54 29 119 -10 142 -9 5 -12 17 -8 30 6
21 5 20 -15 -3 -53 -64 -60 -77 -60 -108 0 -30 -2 -32 -27 -26 -16 4 -36 11
-47 16 -10 6 -37 16 -60 22 -27 9 -40 17 -37 27 11 36 12 87 2 93 -6 4 -11 11
-11 16 0 5 15 1 33 -9 23 -14 54 -19 109 -20 66 -2 86 2 133 25 30 15 55 31
55 35 0 19 99 16 136 -4z m630 -24 c14 -18 30 -26 52 -26 37 0 37 0 12 -96
-11 -41 -20 -81 -20 -89 0 -8 -14 -29 -32 -47 l-31 -32 -33 19 c-38 23 -54 17
-54 -18 0 -14 -9 -34 -19 -46 -19 -19 -20 -19 -19 -2 1 11 -2 33 -6 51 -6 25
-4 32 11 37 20 7 53 59 53 85 0 29 12 32 28 9 l15 -21 10 24 c13 34 17 140 6
162 -15 26 3 20 27 -10z m202 -18 c25 5 29 1 46 -41 16 -39 17 -51 7 -85 -11
-37 -44 -68 -55 -51 -3 4 -4 21 -4 38 2 57 -61 138 -76 98 -3 -8 -2 -23 3 -32
4 -9 11 -36 14 -59 4 -36 2 -43 -14 -48 -10 -3 -29 -8 -40 -11 -12 -3 -19 -2
-16 3 7 11 11 30 28 123 17 97 14 93 50 75 18 -10 41 -14 57 -10z m-2208 5 c0
-5 -7 -7 -15 -4 -8 4 -15 8 -15 10 0 2 7 4 15 4 8 0 15 -4 15 -10z m1665 -23
c-2 -28 13 -59 26 -52 5 4 9 2 9 -4 0 -5 -14 -13 -32 -16 -17 -4 -41 -17 -52
-30 l-21 -23 -2 77 -2 76 38 -3 c32 -3 38 -7 36 -25z m246 10 c-10 -9 -11 -8
-5 6 3 10 9 15 12 12 3 -3 0 -11 -7 -18z m-2211 -12 c-7 -8 -17 -15 -22 -15
-6 0 -5 7 2 15 7 8 17 15 22 15 6 0 5 -7 -2 -15z m2190 8 c0 -2 -7 -11 -15
-19 -16 -17 -10 -44 11 -44 8 0 14 -5 14 -11 0 -6 -8 -7 -22 -3 -65 23 -123
-9 -114 -62 7 -37 -13 -59 -45 -51 -21 6 -83 -16 -93 -32 -9 -13 -44 -2 -51
17 -9 23 8 34 59 38 63 4 86 18 86 54 0 22 5 30 17 30 22 0 80 40 93 65 9 17
60 32 60 18z m-1033 -106 c17 -9 49 -19 72 -23 49 -8 52 -17 9 -29 -19 -6 -42
-24 -56 -45 -22 -33 -22 -35 -5 -48 20 -14 79 -10 114 8 11 6 24 22 29 36 14
37 58 31 137 -17 112 -68 110 -66 56 -66 -89 -1 -138 -5 -155 -15 -17 -8 -25
2 -11 15 3 4 8 21 10 38 l3 32 -22 -29 c-13 -16 -22 -34 -20 -40 2 -10 -4 -10
-26 -2 -31 12 -122 -6 -122 -24 0 -5 9 -4 20 2 14 7 20 7 20 0 0 -5 -6 -10
-13 -10 -11 0 -47 -34 -47 -44 0 -2 27 -6 60 -10 46 -5 68 -3 92 8 30 15 31
15 15 -2 -25 -27 -21 -35 8 -16 14 9 32 14 40 10 8 -3 17 -5 20 -6 3 0 18 -6
33 -13 15 -8 41 -12 57 -10 39 6 87 51 79 75 -4 15 0 18 24 18 47 0 55 -18 33
-81 -11 -30 -24 -55 -30 -55 -6 -1 -15 -2 -21 -3 -5 0 -10 -7 -10 -14 0 -10
-16 -14 -57 -15 -60 0 -116 -12 -148 -29 -17 -10 -16 -12 12 -26 16 -9 51 -21
77 -28 32 -8 43 -15 35 -20 -24 -14 -1 -22 71 -22 38 -1 70 -3 70 -6 0 -3 -14
-24 -30 -45 -36 -47 -39 -91 -10 -138 11 -18 20 -29 20 -25 0 5 14 0 30 -10
28 -16 32 -16 59 0 16 9 36 17 45 17 9 0 35 14 58 31 37 26 49 30 92 26 53 -4
131 19 150 45 6 8 17 13 24 11 6 -3 12 1 12 9 0 10 3 9 10 -2 12 -19 -9 -42
-69 -76 -25 -15 -71 -51 -103 -82 -50 -49 -61 -55 -105 -58 -60 -3 -139 -21
-167 -37 -11 -6 -31 -12 -43 -14 -28 -2 -103 -41 -103 -53 0 -21 208 -115 298
-135 57 -12 91 -33 92 -58 0 -4 13 -35 30 -69 34 -67 79 -115 119 -124 14 -3
43 -12 64 -20 46 -17 98 -15 113 5 8 10 16 11 29 4 10 -6 13 -13 8 -16 -29
-18 38 -107 86 -114 7 -1 28 -18 45 -39 57 -68 162 -151 168 -133 3 10 88 -87
88 -101 0 -3 -13 -5 -29 -2 -22 3 -33 -1 -43 -17 -18 -29 -34 -26 -41 8 -8 39
-33 68 -78 91 -19 10 -41 25 -48 34 -17 21 -107 30 -161 16 -143 -37 -137 -37
-172 -3 -59 54 -301 173 -313 153 -7 -12 17 -102 32 -118 7 -7 13 -22 13 -33
0 -24 41 -107 80 -160 21 -30 27 -47 23 -70 -8 -51 -7 -130 1 -191 5 -34 4
-63 -2 -74 -9 -16 -10 -16 -21 5 -7 12 -9 26 -6 31 3 5 -1 26 -10 46 -8 20
-13 39 -10 42 3 3 -13 25 -35 47 -35 36 -42 50 -47 96 -3 30 -10 57 -16 61 -6
3 -12 21 -13 40 -1 18 -2 36 -3 40 0 3 -14 9 -31 13 -16 4 -30 11 -30 16 0 5
-10 7 -22 5 -13 -3 -28 -5 -34 -5 -27 -2 -65 -50 -80 -101 l-16 -55 -17 25
c-21 32 -76 90 -86 90 -4 0 -4 -7 -1 -16 6 -17 8 -18 -67 32 -28 19 -57 34
-64 34 -26 0 21 -105 71 -159 19 -21 27 -35 19 -38 -8 -3 -9 -12 -3 -29 8 -19
4 -33 -18 -69 -30 -50 -54 -57 -83 -23 -23 25 -23 29 -4 22 17 -7 28 28 23 77
-2 22 -8 33 -16 31 -8 -1 -11 1 -8 6 9 15 -19 39 -71 62 -20 8 -29 33 -24 63
1 5 -3 6 -9 2 -5 -3 -10 -16 -10 -28 -1 -16 -5 -11 -14 15 -12 34 -78 108 -97
108 -4 0 -6 -19 -5 -42 3 -39 3 -40 -10 -17 -7 13 -13 19 -14 13 0 -23 30 -82
54 -105 14 -13 21 -28 17 -34 -5 -5 -11 -23 -15 -39 l-7 -29 25 24 c14 13 26
31 26 39 1 8 8 2 17 -15 9 -16 19 -32 23 -35 4 -3 18 -24 30 -48 12 -23 31
-47 41 -53 11 -5 19 -15 19 -21 0 -7 -4 -7 -12 -1 -7 6 -49 22 -94 37 -94 31
-131 61 -111 91 23 36 7 95 -36 131 l-31 26 -14 -27 c-20 -39 -22 -76 -5 -109
l15 -29 -49 36 c-27 20 -62 41 -76 46 -15 6 -32 22 -39 36 -6 14 -17 25 -25
25 -7 0 -13 7 -13 16 0 11 5 14 16 10 10 -4 14 -1 12 6 -3 7 -16 14 -30 16
-19 2 -27 10 -32 32 -6 33 -43 61 -84 65 -16 1 -34 5 -40 9 -17 10 -24 -10
-17 -51 4 -31 3 -34 -4 -15 -14 31 -22 27 -10 -5 25 -70 93 -112 129 -80 8 6
6 2 -5 -11 -16 -20 -17 -28 -8 -53 7 -17 9 -38 6 -46 -4 -11 -2 -14 5 -9 7 4
12 15 12 26 0 10 7 20 15 24 8 3 12 12 9 21 -3 8 -1 15 5 15 6 0 11 -4 11 -9
0 -5 16 -15 35 -21 45 -15 45 -26 -1 -27 -23 -1 -45 -9 -58 -22 -11 -12 -32
-30 -46 -41 l-25 -19 33 -1 c38 0 75 -17 67 -30 -3 -5 6 -21 20 -36 14 -15 25
-34 25 -42 0 -41 47 -156 75 -184 l30 -30 -31 5 c-17 3 -40 10 -52 16 -24 13
-72 92 -72 118 0 11 -13 37 -29 59 -15 21 -31 51 -35 67 -3 15 -10 27 -15 27
-13 0 17 -78 38 -102 19 -20 36 -66 28 -75 -3 -2 -18 8 -35 22 -16 14 -33 25
-37 25 -14 0 29 -41 57 -56 15 -8 33 -24 39 -36 l12 -22 -29 18 c-15 11 -46
21 -69 24 -22 2 -41 5 -43 7 -3 3 -10 35 -18 90 -18 124 -47 219 -67 223 -9 2
-17 -1 -17 -6 0 -5 -11 -20 -23 -33 -13 -13 -27 -35 -31 -49 -3 -14 -18 -38
-32 -54 -23 -26 -26 -27 -43 -12 -10 9 -24 16 -32 16 -11 -1 -10 -4 4 -14 25
-19 21 -27 -6 -15 -18 8 -23 17 -19 35 4 22 8 23 46 19 22 -3 34 -2 26 1 -18
8 -102 75 -112 89 -4 5 -4 13 -2 17 3 4 -2 5 -10 2 -8 -3 -25 4 -38 16 -25 24
-67 45 -98 49 -11 1 -14 31 -4 31 3 0 22 -7 41 -16 48 -23 63 -7 33 36 -13 18
-27 52 -31 77 -10 53 -37 93 -75 113 -15 8 -41 27 -58 43 -17 15 -33 27 -37
27 -3 0 -6 6 -7 13 -1 6 -5 32 -10 56 -11 49 -3 86 34 167 13 29 24 61 25 71
0 10 7 34 14 53 l14 35 -3 -45 c-1 -25 -8 -56 -16 -69 -16 -31 -8 -140 15
-194 8 -21 13 -43 9 -49 -4 -5 -2 -13 3 -17 6 -3 17 -26 25 -51 16 -50 44 -62
41 -18 -1 15 4 29 12 32 17 6 21 1 29 -46 4 -21 11 -38 16 -38 14 0 12 21 -3
66 -15 41 -12 97 4 102 5 2 9 9 9 15 0 8 -4 7 -12 -1 -7 -7 -15 -12 -19 -12
-8 0 -7 6 5 57 9 38 -21 114 -56 143 -20 16 -22 26 -21 91 3 135 5 159 13 164
12 7 38 -106 41 -179 1 -22 5 -45 9 -51 18 -25 39 -114 36 -150 -3 -33 2 -47
37 -92 38 -51 40 -58 44 -136 2 -45 6 -91 8 -102 2 -11 4 -26 4 -32 1 -7 6
-13 11 -13 7 0 8 18 5 48 l-6 47 21 -25 20 -25 -11 30 c-6 17 -13 50 -15 75
-3 27 -16 65 -34 93 -17 27 -30 50 -30 52 0 10 51 -23 55 -36 11 -34 118 -108
130 -89 4 6 3 9 -2 8 -18 -6 -83 43 -107 81 -15 23 -37 43 -51 47 -41 10 -62
46 -60 101 2 26 -1 56 -6 66 -6 9 -6 17 -1 17 13 0 32 -23 32 -38 0 -18 40
-85 47 -78 2 2 -5 22 -17 45 -11 23 -18 41 -16 41 17 0 58 -27 71 -46 8 -13
34 -33 58 -44 40 -20 41 -20 17 -1 -14 10 -41 33 -60 51 -19 17 -56 44 -82 60
-57 35 -83 72 -84 122 l-1 38 34 -40 c20 -23 64 -54 109 -77 43 -21 81 -47 86
-60 6 -12 18 -23 28 -26 16 -4 35 -57 21 -57 -4 0 -7 -9 -8 -19 -1 -14 3 -18
13 -14 8 3 14 9 14 13 0 4 16 17 35 29 24 14 37 30 41 51 7 32 23 51 25 28 1
-30 10 -62 20 -74 7 -9 3 -12 -18 -13 -54 -1 -63 -2 -68 -12 -4 -5 3 -9 13 -9
11 0 25 -6 31 -14 14 -16 45 -13 69 6 9 7 5 -1 -8 -19 l-23 -32 28 -41 c29
-42 65 -73 74 -65 2 3 -4 12 -15 21 -17 13 -16 13 13 -1 54 -25 60 -21 59 38
-2 63 -16 91 -55 108 -22 10 -27 17 -20 26 7 8 7 18 0 30 -9 16 -10 16 -11 1
0 -27 -19 -31 -29 -6 -5 13 -16 30 -24 37 -9 7 -19 26 -22 43 -4 17 -18 55
-32 86 -21 47 -22 53 -6 41 10 -8 20 -17 23 -21 3 -4 19 -8 35 -9 83 -5 99 13
58 62 -36 42 -89 65 -110 47 -13 -10 -19 -8 -38 15 -12 16 -22 34 -22 40 -2
24 -14 133 -19 162 l-5 30 17 -30 c9 -16 26 -37 38 -46 33 -26 96 -89 96 -96
0 -4 -3 -3 -6 0 -7 7 -64 -23 -64 -33 0 -7 59 -5 67 3 10 11 25 8 18 -3 -3 -5
13 -28 36 -51 34 -34 45 -40 67 -34 15 4 32 8 39 8 23 1 -41 99 -77 118 l-35
19 30 1 30 1 -30 13 c-16 7 -30 19 -31 27 -2 32 -43 104 -65 115 -40 19 -67
22 -86 8 -21 -16 -43 -3 -43 25 0 10 -6 20 -12 22 -7 3 16 14 51 25 58 19 67
20 87 7 17 -11 23 -12 26 -3 2 7 19 -8 38 -34 18 -26 36 -47 40 -47 3 0 16 -9
28 -20 12 -11 33 -25 47 -30 24 -9 25 -8 19 18 -4 15 -15 47 -25 71 -23 53
-24 68 -4 51 34 -28 -2 41 -45 86 -34 37 -29 45 30 46 37 0 108 39 103 56 -1
4 5 17 13 30 8 12 10 22 4 22 -5 0 -10 10 -10 23 0 31 -20 56 -49 60 -13 2
-29 11 -36 20 -6 9 -27 19 -46 22 -47 8 -71 26 -94 69 -11 20 -23 36 -28 36
-5 0 -22 10 -39 21 -17 12 -37 22 -47 23 -9 1 -25 7 -36 13 -16 10 -17 14 -6
22 15 10 42 5 89 -16 19 -8 42 -13 53 -10 10 3 17 2 14 -3 -7 -12 21 -20 71
-20 56 0 67 -6 138 -75 32 -31 73 -64 91 -73 18 -9 50 -29 71 -43 21 -14 49
-29 62 -33 19 -6 22 -4 22 18 0 37 -26 151 -52 231 l-23 71 45 -2 c25 0 59 -8
77 -17z m-1359 -13 c15 -15 14 -18 -11 -36 -32 -23 -65 -85 -59 -110 5 -25 29
-22 43 5 13 24 67 77 78 77 9 -1 55 -40 50 -43 -2 -2 -38 -20 -79 -40 -41 -21
-83 -43 -92 -49 -23 -17 -34 -2 -37 50 -1 7 -12 17 -25 23 l-23 11 21 41 c11
23 28 47 36 52 12 8 64 31 78 34 2 1 11 -6 20 -15z m672 -28 c0 -3 -4 -8 -10
-11 -5 -3 -10 -1 -10 4 0 6 5 11 10 11 6 0 10 -2 10 -4z m865 -16 c3 -5 -1
-10 -9 -10 -9 0 -16 5 -16 10 0 6 4 10 9 10 6 0 13 -4 16 -10z m-1315 -105 c0
-49 13 -61 47 -46 24 12 73 21 73 15 0 -2 -15 -18 -33 -38 -24 -25 -37 -32
-48 -26 -17 11 -79 4 -93 -10 -18 -18 -38 -12 -31 10 9 29 -23 26 -66 -6 -19
-14 -44 -30 -57 -35 -13 -5 -21 -13 -18 -18 3 -5 0 -14 -8 -20 -11 -9 -13 -4
-9 32 4 33 1 48 -12 61 -10 9 -15 20 -11 23 3 4 45 25 93 47 60 29 99 41 130
41 41 0 43 -1 43 -30z m1397 -78 c-13 -29 -22 -33 -32 -17 -4 6 4 19 17 29 29
24 31 22 15 -12z m-1732 -67 c0 -50 -10 -61 -33 -38 -9 9 -15 9 -23 1 -9 -9
-16 -9 -30 0 -16 10 -13 15 34 49 29 20 52 38 52 38 0 0 0 -22 0 -50z m2811
13 c-11 -11 -19 6 -11 24 8 17 8 17 12 0 3 -10 2 -21 -1 -24z m-2551 -50 c6
-26 31 -51 66 -65 11 -4 27 2 46 18 35 30 56 30 72 1 14 -26 60 -57 84 -57 18
0 29 -24 21 -45 -10 -25 -34 -17 -75 25 -41 42 -77 51 -99 25 -10 -12 -15 -12
-39 5 -15 12 -46 22 -73 23 -66 5 -105 41 -45 42 18 0 22 5 20 28 -2 35 13 35
22 0z m-169 -28 c-7 -19 23 -35 68 -35 25 0 36 -5 36 -14 0 -8 -4 -17 -9 -20
-17 -11 -18 -56 -1 -83 16 -27 16 -30 -4 -70 -11 -24 -24 -43 -28 -43 -5 0 -2
10 6 23 23 37 28 64 12 70 -19 8 -90 -65 -127 -128 -15 -27 -38 -56 -50 -63
-12 -8 -20 -10 -18 -5 28 63 72 133 84 133 8 0 15 4 15 9 0 5 -10 7 -22 3 -20
-5 -21 -4 -10 11 8 9 17 15 20 14 18 -5 69 27 80 51 26 52 26 56 9 49 -11 -4
-14 -2 -11 8 7 17 -26 9 -102 -24 -61 -27 -109 -21 -98 12 4 12 11 38 15 57 3
19 7 30 8 25 3 -25 111 0 111 25 0 6 5 10 11 10 6 0 9 -7 5 -15z m88 3 c-3 -4
-9 -8 -15 -8 -5 0 -9 4 -9 8 0 5 7 9 15 9 8 0 12 -4 9 -9z m233 -146 c12 -7
32 -12 45 -12 22 -1 22 -1 3 -12 -11 -6 -38 -29 -60 -50 -37 -34 -41 -36 -52
-20 -7 9 -18 23 -24 31 -9 10 -6 18 16 35 18 15 26 29 22 38 -8 22 5 32 18 15
5 -7 20 -19 32 -25z m2243 -11 c0 -5 -7 -12 -16 -15 -14 -5 -15 -4 -4 9 14 17
20 19 20 6z m160 -25 c28 -4 28 -21 0 -50 -19 -20 -20 -19 -45 10 -14 16 -25
32 -25 36 0 12 34 27 40 17 3 -4 17 -10 30 -13z m-2312 -28 c-6 -18 -15 -38
-19 -44 -7 -8 -21 -63 -33 -127 -19 -99 -30 -123 -71 -154 -31 -22 -58 -33
-96 -37 -51 -6 -92 -24 -117 -55 -16 -20 -62 -114 -67 -138 -2 -10 -6 -30 -10
-45 -8 -32 -6 -33 32 -16 33 15 32 14 108 78 33 27 63 50 67 50 4 0 12 17 17
38 10 36 81 119 81 94 0 -7 -9 -38 -19 -70 -11 -31 -24 -76 -30 -99 -10 -36
-17 -43 -49 -53 -20 -6 -44 -14 -52 -17 -8 -3 -26 -7 -39 -9 -13 -1 -31 -9
-40 -17 -9 -8 -22 -12 -29 -10 -6 3 -33 -7 -59 -21 -25 -15 -47 -25 -49 -24
-6 7 -6 45 1 61 4 9 5 26 2 37 -6 25 9 36 28 20 12 -10 15 -9 15 3 0 9 -8 21
-17 26 -17 10 -17 12 -1 24 30 24 37 59 21 105 -13 41 -13 44 9 71 13 15 32
49 43 74 22 53 34 61 28 20 -2 -16 -5 -34 -5 -41 -1 -7 -12 -24 -25 -38 -12
-14 -23 -27 -23 -30 0 -11 38 -1 60 16 14 11 28 20 32 20 4 0 16 6 25 14 70
57 115 85 128 80 11 -5 15 1 15 20 0 14 4 26 9 26 9 0 56 99 66 140 5 22 44
56 67 59 4 1 2 -14 -4 -31z m91 -91 c22 -40 43 -91 46 -113 3 -21 7 -48 9 -59
3 -11 5 -22 5 -25 1 -3 15 22 32 55 17 33 35 62 40 63 16 6 39 59 39 89 0 53
19 8 24 -57 2 -36 6 -71 8 -79 2 -9 -6 -16 -17 -18 -52 -9 -63 -14 -88 -37
-16 -15 -27 -36 -27 -52 0 -39 -26 -55 -62 -37 -16 8 -36 16 -45 17 -25 4 -81
65 -88 97 -10 45 3 114 37 203 28 73 32 78 39 54 4 -15 25 -60 48 -101z m-460
68 c-18 -25 -34 -45 -36 -45 -6 0 6 19 35 58 37 49 38 38 1 -13z m140 34 c20
2 22 0 16 -16 -5 -10 -9 -34 -10 -53 -1 -18 -6 -35 -11 -37 -5 -2 -8 14 -6 35
5 51 -20 75 -41 40 -86 -144 -121 -207 -121 -224 -1 -16 -40 -84 -48 -84 -12
0 14 61 28 67 8 3 14 9 14 14 0 4 -7 6 -17 2 -12 -5 -10 5 12 45 15 28 35 59
44 70 18 20 28 36 68 104 15 26 32 44 38 40 5 -3 21 -5 34 -3z m-266 -71 c-12
-13 -33 -47 -47 -76 -17 -34 -36 -56 -53 -63 -14 -5 -28 -8 -30 -5 -8 8 49 91
89 129 43 40 75 52 41 15z m37 -103 c-7 -8 -17 -15 -23 -15 -6 0 -2 7 9 15 25
19 30 19 14 0z m127 -27 c-3 -8 -6 -5 -6 6 -1 11 2 17 5 13 3 -3 4 -12 1 -19z
m806 -7 c-4 -16 -9 -18 -28 -11 -13 5 -25 6 -28 4 -3 -3 -8 1 -13 8 -4 7 -4
10 0 7 4 -4 19 -3 34 1 40 12 41 12 35 -9z m-955 2 c-29 -63 -64 -123 -70
-123 -21 0 3 60 39 98 7 7 13 18 13 23 0 5 5 9 11 9 6 0 9 -3 7 -7z m13 -55
c-9 -23 -24 -44 -31 -46 -12 -4 -11 0 1 19 9 13 21 34 28 47 20 37 21 25 2
-20z m808 -176 c27 -80 27 -82 8 -82 -24 0 -67 -37 -67 -57 0 -7 -4 -13 -10
-13 -5 0 -10 13 -10 28 0 29 -3 33 -79 129 -24 30 -37 54 -30 53 49 -7 107 2
125 19 10 10 23 15 27 11 4 -4 21 -44 36 -88z m-329 84 c0 -3 -4 -8 -10 -11
-5 -3 -10 -1 -10 4 0 6 5 11 10 11 6 0 10 -2 10 -4z m350 -37 c0 -6 -4 -7 -10
-4 -5 3 -10 11 -10 16 0 6 5 7 10 4 6 -3 10 -11 10 -16z m-353 -11 c-3 -8 -6
-5 -6 6 -1 11 2 17 5 13 3 -3 4 -12 1 -19z m558 12 c3 -5 2 -10 -4 -10 -5 0
-13 5 -16 10 -3 6 -2 10 4 10 5 0 13 -4 16 -10z m-1103 -119 c15 -18 15 -20
-8 -25 -13 -4 -24 -12 -24 -20 0 -7 -10 -21 -22 -30 -22 -16 -22 -16 17 -10
22 4 42 11 43 15 2 5 8 9 13 9 6 0 7 -5 4 -10 -4 -6 -1 -26 5 -46 15 -46 7
-53 -22 -19 -16 18 -36 29 -62 32 -21 2 -47 8 -57 14 -24 12 -25 -3 -3 -25 17
-18 29 -80 14 -71 -6 4 -11 -3 -11 -14 -2 -36 -3 -39 -29 -73 -80 -105 -94
-137 -92 -198 1 -25 1 -25 -15 4 -32 61 -33 81 -4 143 15 32 35 64 44 72 18
14 23 31 9 31 -4 0 -16 -14 -26 -31 -22 -37 -31 -31 -28 21 2 22 -2 40 -7 40
-7 0 -9 -23 -7 -57 2 -32 0 -67 -5 -78 -4 -11 -8 -15 -9 -10 -6 39 -12 60 -27
88 -26 50 -25 66 7 110 19 26 30 53 30 75 0 18 5 42 10 53 10 18 13 18 40 4
39 -20 96 -19 145 4 51 25 57 25 77 2z m343 -118 c-4 -10 -12 -40 -18 -66 -6
-29 -17 -51 -26 -54 -9 -3 -24 -15 -34 -27 l-18 -21 11 23 c6 12 7 22 3 22 -9
0 -38 -53 -48 -87 -3 -12 -1 -33 6 -45 11 -21 11 -22 -5 -9 -13 11 -20 11 -28
3 -7 -7 -20 -12 -31 -12 -10 0 -16 -4 -13 -9 3 -5 21 -8 40 -7 26 1 32 -2 25
-11 -6 -6 -23 -41 -38 -78 l-28 -66 -21 48 c-21 50 -26 77 -24 127 2 23 6 27
22 23 36 -9 102 87 87 127 -3 7 6 26 20 42 14 16 30 36 37 45 10 15 62 46 80
48 4 1 5 -7 1 -16z m-681 -117 c13 -28 26 -78 29 -111 4 -33 15 -83 26 -112
11 -28 23 -63 26 -77 17 -84 17 -80 0 -66 -17 14 -29 35 -76 128 -24 48 -29
69 -23 90 4 15 9 48 10 74 2 39 -3 55 -27 88 -34 47 -35 50 -9 43 11 -3 30
-27 44 -57z m331 -4 c33 4 33 4 20 -23 -24 -46 -26 -78 -5 -89 10 -5 26 -7 34
-4 13 5 16 -1 16 -29 0 -35 -1 -35 -29 -27 -23 6 -41 2 -87 -20 -33 -16 -51
-29 -42 -30 10 0 25 -11 33 -24 27 -41 115 -55 153 -24 13 10 14 10 8 1 -4 -7
-2 -13 3 -13 6 0 11 -6 11 -14 0 -8 5 -27 12 -43 12 -30 13 -33 24 -73 6 -21
0 -18 -30 18 -21 23 -42 39 -47 36 -11 -6 -86 41 -106 66 -22 28 -24 3 -4 -50
16 -41 19 -70 16 -143 -2 -50 1 -101 6 -114 l9 -23 -32 22 c-45 32 -105 93
-133 136 -50 76 -38 144 39 226 25 27 44 51 42 53 -3 3 2 24 10 46 8 23 13 50
10 59 -2 10 -1 20 4 23 4 3 4 22 -1 42 -13 55 -11 59 12 34 16 -17 30 -22 54
-19z m2943 -27 c38 -19 75 -42 82 -50 11 -14 6 -15 -39 -10 -61 6 -106 24
-141 54 -20 19 -22 24 -10 31 23 15 32 13 108 -25z m-232 -42 c35 -32 157
-184 151 -189 -16 -17 -187 163 -187 198 0 13 16 9 36 -9z m136 -9 c18 -9 87
-69 153 -135 109 -108 118 -119 92 -119 -19 0 -42 13 -72 43 -25 23 -45 45
-45 50 0 4 -38 45 -85 92 -47 47 -83 85 -80 85 2 0 19 -7 37 -16z m-2466 -102
c15 -51 12 -112 -7 -112 -11 0 -36 91 -43 160 l-5 55 19 -25 c11 -14 27 -49
36 -78z m2298 80 c3 -5 -1 -9 -9 -9 -8 0 -12 4 -9 9 3 4 7 8 9 8 2 0 6 -4 9
-8z m-2587 -34 c-3 -7 -5 -2 -5 12 0 14 2 19 5 13 2 -7 2 -19 0 -25z m2739 -6
c22 -20 77 -70 122 -110 65 -57 77 -72 60 -72 -48 1 -97 42 -171 143 -31 42
-56 77 -54 77 2 0 22 -17 43 -38z m-2526 -7 c-7 -9 -15 -13 -18 -10 -3 2 1 11
8 20 7 9 15 13 18 10 3 -2 -1 -11 -8 -20z m18 -43 c-1 -9 7 -44 17 -77 19 -63
22 -101 11 -131 -6 -15 -9 -16 -16 -4 -7 11 -10 8 -15 -13 -5 -20 -13 -27 -31
-27 -23 0 -24 1 -11 28 19 36 28 127 17 181 -5 30 -4 48 4 57 14 15 25 9 24
-14z m-529 -117 c0 -5 -4 -3 -9 5 -5 8 -9 22 -9 30 0 16 17 -16 18 -35z m676
-35 c3 -5 1 -10 -4 -10 -6 0 -11 5 -11 10 0 6 2 10 4 10 3 0 8 -4 11 -10z
m2599 -80 c4 -5 0 -7 -10 -7 -11 1 -34 19 -51 40 -56 66 -42 59 61 -33z
m-2552 -16 c22 -12 27 -18 18 -24 -17 -10 -60 9 -60 27 0 17 4 16 42 -3z
m2696 -19 c33 -8 54 -25 29 -25 -8 0 -36 7 -62 15 -51 15 -75 12 -34 -4 20 -8
14 -10 -33 -10 -32 -1 -58 1 -58 3 0 2 -3 12 -6 20 -5 14 3 16 62 12 38 -2 84
-7 102 -11z m-1673 -22 c-8 -15 -11 -31 -8 -37 3 -6 2 -7 -2 -3 -5 4 -10 21
-11 37 -2 23 2 30 16 30 17 0 18 -2 5 -27z m1475 12 c0 -9 -6 -12 -15 -9 -8 4
-15 10 -15 15 0 5 7 9 15 9 8 0 15 -7 15 -15z m-2526 -16 c-6 -11 -24 -2 -24
11 0 5 7 7 15 4 8 -4 12 -10 9 -15z m855 -132 c-18 -18 -29 -39 -29 -56 0 -15
-3 -31 -7 -35 -11 -10 -12 -36 -2 -36 5 0 9 4 9 9 0 5 16 7 35 4 30 -4 40 0
70 30 19 19 35 42 35 50 0 25 28 27 81 7 27 -11 59 -20 69 -20 11 0 20 -4 20
-10 0 -5 -17 -9 -38 -8 -22 0 -54 -8 -77 -20 -48 -25 -74 -35 -97 -36 -17 -1
-26 -21 -10 -21 4 0 12 -3 17 -6 6 -4 26 -11 45 -18 19 -6 60 -34 90 -61 30
-28 69 -58 85 -67 l30 -16 -55 -13 c-30 -7 -89 -13 -130 -14 -65 0 -81 4 -113
25 -39 27 -70 75 -66 103 1 9 -3 38 -10 63 -15 54 -107 163 -146 173 -33 8
-32 22 3 29 16 3 34 18 45 36 l17 29 79 -46 79 -46 -29 -29z m2013 94 c20 -6
44 -21 54 -33 11 -12 14 -19 8 -15 -5 3 -30 9 -55 12 -24 3 -51 7 -59 9 -8 1
-58 9 -110 16 l-95 15 60 5 c87 8 157 4 197 -9z m-3920 -17 c21 -15 38 -28 38
-30 0 -9 -61 20 -76 37 -24 27 -7 24 38 -7z m1911 2 c4 -10 1 -13 -9 -9 -7 3
-14 9 -14 14 0 14 17 10 23 -5z m1847 -31 c52 -3 128 -8 169 -9 59 -3 77 -8
95 -26 l21 -21 -70 5 c-38 3 -88 8 -110 10 -22 3 -67 8 -100 11 -61 6 -115 23
-115 38 0 5 3 6 8 4 4 -3 50 -8 102 -12z m-3836 -33 c28 -22 65 -46 81 -55 17
-9 25 -16 18 -17 -14 0 -121 57 -145 78 -18 15 -24 32 -11 32 3 0 29 -17 57
-38z m52 6 c25 -27 19 -30 -11 -6 -5 5 -19 15 -30 23 -16 11 -17 14 -4 15 8 0
28 -14 45 -32z m157 -46 c124 -83 139 -94 134 -99 -3 -2 -36 16 -73 40 -38 24
-87 54 -109 65 -22 11 -51 30 -65 42 l-25 22 28 -7 c16 -4 65 -32 110 -63z
m3577 12 c14 -7 42 -29 64 -49 32 -30 35 -35 17 -35 -30 0 -125 37 -155 61
-40 31 -34 51 12 43 20 -4 48 -13 62 -20z m-3443 -11 c3 -10 17 -30 30 -45 25
-26 25 -26 5 -37 -22 -12 -39 0 -27 19 4 6 -3 26 -14 45 -11 19 -16 35 -10 35
5 0 12 -8 16 -17z m133 -3 c10 -5 36 -13 57 -16 48 -8 52 -11 21 -23 -14 -5
-31 -23 -38 -40 -13 -32 -30 -42 -30 -17 0 15 -21 26 -52 26 -14 0 -18 5 -14
16 3 9 6 27 6 40 0 26 18 31 50 14z m891 -11 c15 -8 15 -13 -2 -65 -11 -32
-21 -59 -22 -61 -6 -5 -105 46 -113 58 -4 8 3 21 19 34 15 11 27 29 27 39 0
16 5 17 37 11 21 -4 45 -11 54 -16z m-696 -33 c0 -10 -14 -35 -32 -54 -18 -19
-30 -39 -28 -43 3 -4 1 -19 -5 -33 -10 -27 -46 -36 -65 -17 -31 29 -96 -59
-75 -99 14 -25 13 -30 -5 -24 -8 3 -13 10 -12 16 1 5 -6 15 -15 21 -14 9 -22
7 -41 -11 -13 -12 -27 -22 -32 -22 -5 0 0 7 11 15 10 8 15 15 11 15 -16 0 22
42 54 59 19 10 43 32 54 48 16 25 25 30 47 26 22 -4 30 0 47 28 12 19 24 49
27 67 6 29 10 33 33 30 18 -2 26 -9 26 -22z m-556 -34 c31 -22 85 -47 140 -67
34 -12 40 -12 45 1 3 9 -8 27 -27 45 l-32 31 41 -28 c37 -25 41 -32 37 -60 -4
-24 1 -36 26 -61 17 -18 31 -34 31 -37 0 -3 -18 -15 -41 -26 -36 -19 -40 -25
-34 -47 5 -22 3 -24 -12 -18 -24 11 -74 9 -82 -2 -15 -22 -39 -21 -51 3 -7 13
-21 26 -32 30 -46 14 4 55 74 60 77 5 119 14 113 24 -3 5 0 12 6 15 6 5 -5 17
-29 31 -29 17 -54 24 -86 22 -25 0 -49 2 -53 5 -3 4 3 7 15 7 12 0 22 4 22 9
0 5 -9 7 -20 4 -11 -3 -20 0 -20 6 0 6 -4 11 -10 11 -13 0 -100 62 -100 72 0
10 45 -8 79 -30z m112 -30 c-7 -2 -18 1 -23 6 -8 8 -4 9 13 5 13 -4 18 -8 10
-11z m1498 -82 c27 -17 80 -41 118 -54 72 -24 133 -53 133 -62 0 -9 -134 6
-188 22 -36 10 -56 22 -63 37 -13 28 -104 91 -118 82 -6 -3 -11 0 -11 8 0 22
68 4 129 -33z m1128 28 c-3 -8 -6 -5 -6 6 -1 11 2 17 5 13 3 -3 4 -12 1 -19z
m-1626 -41 c7 -13 6 -19 -7 -24 -20 -8 -34 14 -32 50 2 26 3 27 16 10 7 -10
18 -26 23 -36z m-45 -44 c-7 -7 -26 7 -26 19 0 6 6 6 15 -2 9 -7 13 -15 11
-17z m748 12 c25 -19 9 -19 -24 0 -14 8 -19 14 -10 14 8 0 24 -6 34 -14z
m-760 -34 c6 -9 -17 -32 -51 -50 -32 -17 -36 3 -6 33 26 26 48 33 57 17z
m1223 -23 c6 -7 13 -30 17 -51 4 -22 18 -47 32 -59 23 -21 25 -53 5 -68 -4 -3
-17 -12 -29 -21 -22 -16 -22 -18 -7 -57 11 -27 26 -44 46 -52 16 -7 26 -17 23
-22 -3 -5 -11 -5 -17 0 -29 21 -59 -4 -49 -42 4 -18 2 -17 -17 6 -16 20 -20
34 -15 50 10 31 5 100 -9 117 -9 11 -7 17 11 29 12 8 22 21 22 29 0 20 -36 87
-55 103 -14 12 -14 14 1 31 20 22 28 23 41 7z m-1696 -33 c5 4 9 2 9 -3 0 -13
-38 -24 -72 -22 -34 2 -39 -8 -24 -51 12 -35 12 -36 -24 -57 -28 -16 -55 -21
-116 -22 -140 -2 -135 -4 -124 26 11 27 0 59 -29 82 -14 11 -14 12 4 10 11 -2
23 -7 26 -11 11 -15 144 -26 157 -13 3 4 0 11 -8 16 -21 13 -4 25 36 26 35 2
84 27 84 44 0 5 16 1 36 -10 19 -11 39 -18 45 -15z m1587 -14 c-19 -24 -32
-29 -84 -33 -33 -3 -77 -13 -97 -23 -20 -9 -43 -15 -51 -12 -20 8 -28 -4 -15
-20 8 -9 8 -13 0 -13 -24 0 -199 -175 -187 -188 3 -3 11 0 18 6 7 5 30 14 50
20 28 8 40 7 48 -3 9 -10 0 -15 -42 -24 -29 -7 -56 -17 -60 -24 -5 -9 -15 -7
-38 6 -17 11 -37 16 -45 14 -22 -9 -26 22 -5 43 11 11 20 23 19 27 0 4 4 9 10
11 10 3 12 -3 15 -50 1 -9 4 -20 9 -24 7 -7 8 -3 12 66 1 19 9 51 18 71 8 19
19 47 22 61 4 13 26 41 50 61 l43 36 123 2 c68 1 133 5 144 10 11 4 30 8 43 8
l24 1 -24 -29z m-1218 15 c0 -3 -4 -8 -10 -11 -5 -3 -10 -1 -10 4 0 6 5 11 10
11 6 0 10 -2 10 -4z m775 -7 c2 -3 -13 -6 -34 -7 -22 -2 -42 2 -45 7 -6 10 69
9 79 0z m59 -23 c-3 -7 -24 -22 -47 -34 l-42 -22 -17 21 c-23 27 -18 34 28 37
21 2 39 4 41 5 1 2 11 3 22 4 12 1 18 -3 15 -11z m1091 5 c3 -5 1 -12 -5 -16
-5 -3 -10 1 -10 9 0 18 6 21 15 7z m-677 -39 c-1 -15 5 -38 11 -51 10 -18 10
-25 0 -35 -9 -8 -10 -8 -5 2 11 19 -18 14 -46 -8 l-25 -19 -22 24 c-11 14 -21
29 -21 34 0 4 20 21 45 37 25 15 45 32 45 36 0 4 4 8 9 8 5 0 9 -13 9 -28z
m-2067 -42 l25 -46 -62 10 c-56 8 -62 11 -53 27 5 10 15 16 22 13 7 -2 19 7
27 21 7 14 14 24 15 22 1 -1 13 -22 26 -47z m2900 -25 c-4 -37 -21 -49 -37
-27 -7 9 -18 17 -26 17 -7 0 -14 10 -14 23 -1 21 2 23 40 20 39 -3 41 -4 37
-33z m-508 3 c-4 -13 -14 -35 -25 -50 -10 -14 -18 -31 -18 -36 0 -9 35 -23 65
-27 6 0 9 -6 8 -12 -2 -7 -5 -28 -7 -48 -3 -20 -17 -50 -33 -69 -15 -18 -42
-53 -60 -79 l-32 -47 -25 25 c-16 16 -36 25 -55 25 -23 0 -29 4 -25 15 4 8 10
12 15 9 5 -3 32 18 60 46 49 49 59 78 25 72 -21 -4 -20 4 6 41 14 19 23 46 23
69 0 31 4 39 27 49 15 6 33 17 39 25 16 19 18 18 12 -8z m-2113 -56 c0 -2 -7
-17 -16 -33 -11 -23 -20 -29 -32 -23 -9 4 -29 9 -44 12 -15 2 -33 10 -39 18
-15 18 -35 18 -42 0 -10 -27 40 -65 116 -90 29 -9 4 -42 -37 -49 -36 -6 -76 1
-76 12 0 4 -14 15 -30 24 -26 16 -29 21 -19 39 6 11 8 35 5 52 -4 18 -4 35 -1
38 5 5 215 5 215 0z m1686 -15 c31 4 31 3 25 -28 -6 -29 -13 -34 -106 -70 -55
-21 -109 -43 -120 -48 -39 -18 -67 -21 -61 -5 7 18 -4 17 -28 -1 -11 -8 -31
-15 -45 -14 -24 1 -24 2 9 16 19 8 47 16 62 17 15 1 30 5 34 9 4 4 15 7 25 7
17 0 124 33 195 60 35 14 17 36 -37 45 -21 4 -37 11 -34 16 3 4 16 5 28 0 12
-4 36 -6 53 -4z m-1216 -26 c0 -5 -7 -12 -16 -15 -14 -5 -15 -4 -4 9 14 17 20
19 20 6z m1044 -49 c3 -5 -1 -9 -9 -9 -8 0 -12 4 -9 9 3 4 7 8 9 8 2 0 6 -4 9
-8z m206 -22 c0 -6 11 -16 25 -22 35 -16 31 -26 -13 -38 -29 -7 -44 -19 -58
-45 -10 -19 -24 -37 -31 -40 -11 -3 -11 0 -3 15 8 14 8 20 0 20 -6 0 -13 -7
-16 -15 -4 -8 -12 -15 -19 -15 -6 0 -37 -8 -68 -19 -32 -10 -57 -15 -57 -11 0
10 46 40 62 40 17 0 146 66 163 83 17 17 3 42 -19 34 -8 -3 -18 -2 -21 3 -5 7
4 11 48 19 4 0 7 -4 7 -9z m-70 -14 c0 -2 -7 -7 -16 -10 -8 -3 -12 -2 -9 4 6
10 25 14 25 6z m725 -15 c-3 -6 -11 -11 -17 -11 -6 0 -6 6 2 15 14 17 26 13
15 -4z m-2365 5 c0 -2 -7 -7 -16 -10 -8 -3 -12 -2 -9 4 6 10 25 14 25 6z
m1833 -57 c-5 -46 -4 -51 16 -56 22 -5 21 -6 -9 -32 -21 -19 -31 -36 -33 -61
-2 -34 -4 -35 -35 -32 -18 3 -38 -1 -46 -7 -10 -9 -15 -8 -20 5 -12 32 -5 53
40 120 25 38 41 70 35 72 -19 6 -12 27 12 38 38 17 46 7 40 -47z m-1657 38 c4
-4 0 -7 -9 -7 -9 0 -18 4 -21 9 -7 10 20 9 30 -2z m294 -22 c7 -14 17 -25 22
-25 17 0 7 -16 -20 -32 -34 -20 -47 -13 -47 27 0 56 23 71 45 30z m1190 15
c-8 -5 -22 -9 -30 -9 -10 0 -8 3 5 9 27 12 43 12 25 0z m486 -52 c13 -26 14
-33 3 -37 -7 -2 -23 -14 -34 -25 -12 -12 -26 -21 -31 -19 -6 2 -19 -4 -29 -12
-19 -14 -19 -16 -2 -29 21 -17 59 -9 111 23 40 25 42 25 50 5 9 -24 -36 -100
-56 -94 -2 0 -21 -6 -43 -13 -37 -13 -40 -13 -50 7 -6 12 -25 28 -42 37 l-32
16 67 86 c37 48 68 87 69 87 1 0 10 -14 19 -32z m-721 3 c-6 -4 -25 -13 -43
-19 -26 -9 -33 -9 -29 1 2 6 19 15 38 18 19 4 36 7 39 8 2 0 0 -3 -5 -8z
m-114 -11 c21 10 22 10 7 -3 -10 -8 -15 -17 -11 -20 3 -4 -3 -7 -15 -7 -24 0
-36 15 -26 31 5 8 9 8 14 -1 6 -9 13 -9 31 0z m173 -9 c-5 -4 -25 -14 -44 -21
-140 -51 -137 -49 -105 -50 22 0 26 -3 16 -9 -9 -6 -22 -6 -33 0 -23 12 -12
42 13 36 11 -3 19 -1 19 3 0 5 26 17 58 26 31 10 61 21 66 26 13 10 22 0 10
-11z m-73 -62 c-12 -10 -28 -16 -33 -13 -5 4 3 15 18 25 35 23 47 14 15 -12z
m180 12 c-19 -34 -155 -101 -172 -84 -17 17 15 43 76 59 32 9 68 22 79 30 27
18 29 18 17 -5z m84 -88 c15 -25 16 -36 8 -44 -22 -22 33 -53 93 -53 29 0 52
-1 51 -2 -1 -1 -24 -18 -50 -38 l-48 -37 -19 24 c-40 50 -117 64 -153 28 -11
-11 34 -54 76 -72 23 -10 40 -33 20 -27 -5 1 -17 -3 -29 -9 -29 -17 -62 -12
-67 9 -3 10 -18 25 -35 35 -16 9 -39 31 -51 48 -24 35 -27 50 -8 39 6 -4 4 1
-5 12 -9 10 -19 30 -23 44 -5 20 -2 26 12 27 33 3 48 8 83 31 l35 22 6 -27 5
-28 11 36 c6 20 21 48 34 63 l24 28 5 -39 c3 -21 14 -53 25 -70z m-296 6 c3
-24 3 -24 -18 -5 -11 10 -18 23 -15 28 10 16 29 2 33 -23z m-1 -78 c-3 -17 16
-62 34 -78 l21 -18 -17 33 c-25 49 -14 49 13 1 19 -34 21 -43 10 -50 -22 -14
-23 -13 -64 64 -22 39 -44 79 -50 88 -34 55 -32 59 9 15 25 -27 44 -52 44 -55z
m534 84 l37 -7 -32 -26 c-18 -15 -38 -33 -46 -40 -12 -12 -16 -11 -24 3 -6 12
-6 20 2 25 9 5 9 14 1 34 -9 24 -8 27 7 22 10 -3 35 -8 55 -11z m-696 -37 c19
-39 22 -71 15 -158 -2 -24 -2 -24 -17 -5 -37 49 -57 205 -26 205 4 0 17 -19
28 -42z m79 -26 c16 -26 46 -70 67 -99 21 -29 35 -58 32 -66 -3 -9 7 -23 25
-37 23 -15 31 -29 31 -51 0 -16 -3 -29 -7 -29 -12 1 -181 274 -189 304 -10 40
8 31 41 -22z m-140 -32 l7 -44 -23 15 c-13 9 -26 29 -31 44 -11 42 -2 42 12 1
6 -20 16 -36 22 -36 7 0 7 4 0 13 -9 11 -16 49 -13 72 3 19 19 -20 26 -65z
m264 29 c9 -27 9 -30 -4 -19 -8 7 -15 21 -15 31 0 28 7 23 19 -12z m243 -199
c-12 -12 -22 -25 -22 -31 0 -6 -4 -7 -10 -4 -17 11 -11 31 13 43 35 17 43 14
19 -8z m-112 -32 c0 -16 -3 -19 -11 -11 -6 6 -8 16 -5 22 11 17 16 13 16 -11z"/>
<path d="M7457 9702 c-21 -23 -22 -42 -3 -42 12 0 46 40 46 55 0 12 -28 4 -43
-13z"/>
<path d="M7362 8099 c25 -14 108 -28 108 -18 0 9 -14 13 -37 10 -6 -1 -14 3
-18 9 -3 5 -21 10 -38 10 -26 -1 -29 -2 -15 -11z"/>
<path d="M7730 7820 c6 -12 22 -25 35 -30 13 -5 26 -14 30 -19 3 -6 12 -11 18
-11 14 1 -71 80 -85 80 -5 0 -4 -9 2 -20z"/>
<path d="M4503 7228 c-12 -6 -23 -18 -26 -27 -3 -14 1 -16 25 -13 30 5 47 27
32 42 -5 4 -19 3 -31 -2z"/>
<path d="M6569 6768 c-7 -34 -7 -53 1 -66 9 -15 10 -14 16 5 3 13 10 20 15 17
5 -3 5 5 0 17 -7 19 -29 38 -32 27z"/>
<path d="M7605 5850 c-24 -27 -9 -45 26 -31 13 5 18 10 10 10 -11 1 -10 6 4
21 18 19 17 20 -2 20 -11 0 -28 -9 -38 -20z"/>
<path d="M7520 4262 c-23 -4 -23 -4 9 -18 18 -8 47 -14 64 -14 34 0 32 8 -3
15 -12 2 -27 8 -34 13 -6 4 -22 6 -36 4z"/>
<path d="M7886 3965 c9 -14 24 -25 34 -25 10 0 20 -7 24 -15 3 -8 10 -15 16
-15 17 0 -9 34 -46 58 -43 28 -48 28 -28 -3z"/>
<path d="M5155 5201 c4 -7 -4 -11 -21 -11 -22 0 -25 -2 -14 -15 15 -18 70 -20
70 -2 0 7 -9 18 -21 25 -12 8 -18 9 -14 3z"/>
<path d="M4876 4389 c-14 -17 -26 -40 -26 -52 1 -19 3 -18 15 8 8 17 22 40 31
53 24 33 10 27 -20 -9z"/>
<path d="M4652 3374 c-29 -20 -28 -39 2 -39 13 0 22 3 20 6 -2 4 3 9 11 13 8
3 12 12 9 21 -8 19 -14 19 -42 -1z"/>
<path d="M6719 2913 c0 -5 -2 -18 -3 -31 -4 -31 20 -49 27 -21 3 11 10 18 15
15 6 -3 5 5 -1 19 -11 23 -36 35 -38 18z"/>
<path d="M7190 10078 c7 -10 18 -35 26 -55 12 -34 13 -35 14 -11 0 16 -11 39
-26 55 -15 15 -21 20 -14 11z"/>
<path d="M5000 9050 c12 -8 9 -10 -12 -10 -20 0 -26 -4 -22 -15 6 -14 74 -23
74 -10 0 10 -35 45 -45 45 -5 0 -3 -5 5 -10z"/>
<path d="M4670 8440 c-8 -5 -12 -12 -9 -15 4 -3 12 1 19 10 14 17 11 19 -10 5z"/>
</g>
</svg>
